solid OpenSCAD_Model
  facet normal 0 0 1
    outer loop
      vertex 17.225 15 8.6
      vertex 4 0 8.6
      vertex 17.225 -15 8.6
    endloop
  endfacet
  facet normal 0 0 1
    outer loop
      vertex 17.225 15 8.6
      vertex 3.96846 0.501332 8.6
      vertex 4 0 8.6
    endloop
  endfacet
  facet normal 0 0 1
    outer loop
      vertex 17.225 15 8.6
      vertex 3.87433 0.994759 8.6
      vertex 3.96846 0.501332 8.6
    endloop
  endfacet
  facet normal 0 0 1
    outer loop
      vertex 17.225 15 8.6
      vertex 3.71911 1.4725 8.6
      vertex 3.87433 0.994759 8.6
    endloop
  endfacet
  facet normal 0 0 1
    outer loop
      vertex 17.225 15 8.6
      vertex 3.50523 1.92701 8.6
      vertex 3.71911 1.4725 8.6
    endloop
  endfacet
  facet normal 0 0 1
    outer loop
      vertex 17.225 15 8.6
      vertex 3.23607 2.35114 8.6
      vertex 3.50523 1.92701 8.6
    endloop
  endfacet
  facet normal 0 0 1
    outer loop
      vertex 17.225 15 8.6
      vertex 2.91587 2.73819 8.6
      vertex 3.23607 2.35114 8.6
    endloop
  endfacet
  facet normal 0 0 1
    outer loop
      vertex 17.225 15 8.6
      vertex 2.5497 3.08205 8.6
      vertex 2.91587 2.73819 8.6
    endloop
  endfacet
  facet normal 0 0 1
    outer loop
      vertex 17.225 15 8.6
      vertex 2.14331 3.37731 8.6
      vertex 2.5497 3.08205 8.6
    endloop
  endfacet
  facet normal 0 0 1
    outer loop
      vertex 17.225 15 8.6
      vertex 1.70312 3.61931 8.6
      vertex 2.14331 3.37731 8.6
    endloop
  endfacet
  facet normal 0 0 1
    outer loop
      vertex 17.225 15 8.6
      vertex 1.23607 3.80423 8.6
      vertex 1.70312 3.61931 8.6
    endloop
  endfacet
  facet normal 0 0 1
    outer loop
      vertex 17.225 15 8.6
      vertex 0.749526 3.92915 8.6
      vertex 1.23607 3.80423 8.6
    endloop
  endfacet
  facet normal 0 0 1
    outer loop
      vertex 17.225 15 8.6
      vertex 0.251162 3.99211 8.6
      vertex 0.749526 3.92915 8.6
    endloop
  endfacet
  facet normal -0 0 1
    outer loop
      vertex -13.025 13 8.6
      vertex 0.251162 3.99211 8.6
      vertex 17.225 15 8.6
    endloop
  endfacet
  facet normal 0 0 1
    outer loop
      vertex 0.251162 3.99211 8.6
      vertex -13.025 13 8.6
      vertex -0.251162 3.99211 8.6
    endloop
  endfacet
  facet normal 0 0 1
    outer loop
      vertex -0.251162 3.99211 8.6
      vertex -13.025 13 8.6
      vertex -0.749524 3.92915 8.6
    endloop
  endfacet
  facet normal 0 0 1
    outer loop
      vertex -0.749524 3.92915 8.6
      vertex -13.025 13 8.6
      vertex -1.23607 3.80423 8.6
    endloop
  endfacet
  facet normal 0 0 1
    outer loop
      vertex -1.23607 3.80423 8.6
      vertex -13.025 13 8.6
      vertex -1.70312 3.61931 8.6
    endloop
  endfacet
  facet normal 0 0 1
    outer loop
      vertex -3.96846 0.501332 8.6
      vertex -13.025 13 8.6
      vertex -4 0 8.6
    endloop
  endfacet
  facet normal 0 0 1
    outer loop
      vertex -3.87433 0.994759 8.6
      vertex -13.025 13 8.6
      vertex -3.96846 0.501332 8.6
    endloop
  endfacet
  facet normal 0 0 1
    outer loop
      vertex -3.71911 1.4725 8.6
      vertex -13.025 13 8.6
      vertex -3.87433 0.994759 8.6
    endloop
  endfacet
  facet normal 0 0 1
    outer loop
      vertex -3.50523 1.92701 8.6
      vertex -13.025 13 8.6
      vertex -3.71911 1.4725 8.6
    endloop
  endfacet
  facet normal 0 0 1
    outer loop
      vertex -3.23607 2.35114 8.6
      vertex -13.025 13 8.6
      vertex -3.50523 1.92701 8.6
    endloop
  endfacet
  facet normal 0 0 1
    outer loop
      vertex -2.91587 2.73819 8.6
      vertex -13.025 13 8.6
      vertex -3.23607 2.35114 8.6
    endloop
  endfacet
  facet normal 0 0 1
    outer loop
      vertex -2.5497 3.08205 8.6
      vertex -13.025 13 8.6
      vertex -2.91587 2.73819 8.6
    endloop
  endfacet
  facet normal 0 0 1
    outer loop
      vertex -2.14331 3.37731 8.6
      vertex -13.025 13 8.6
      vertex -2.5497 3.08205 8.6
    endloop
  endfacet
  facet normal 0 0 1
    outer loop
      vertex -1.70312 3.61931 8.6
      vertex -13.025 13 8.6
      vertex -2.14331 3.37731 8.6
    endloop
  endfacet
  facet normal -0 0 1
    outer loop
      vertex -21.275 15 8.6
      vertex -13.025 13 8.6
      vertex 17.225 15 8.6
    endloop
  endfacet
  facet normal 0 0 1
    outer loop
      vertex -19.275 13 8.6
      vertex -21.275 15 8.6
      vertex -19.275 -13 8.6
    endloop
  endfacet
  facet normal 0 0 1
    outer loop
      vertex -13.025 13 8.6
      vertex -21.275 15 8.6
      vertex -19.275 13 8.6
    endloop
  endfacet
  facet normal -0 0 1
    outer loop
      vertex 3.96846 -0.501332 8.6
      vertex 17.225 -15 8.6
      vertex 4 0 8.6
    endloop
  endfacet
  facet normal -0 0 1
    outer loop
      vertex 3.87433 -0.994759 8.6
      vertex 17.225 -15 8.6
      vertex 3.96846 -0.501332 8.6
    endloop
  endfacet
  facet normal -0 0 1
    outer loop
      vertex 3.71911 -1.4725 8.6
      vertex 17.225 -15 8.6
      vertex 3.87433 -0.994759 8.6
    endloop
  endfacet
  facet normal -0 0 1
    outer loop
      vertex 3.50523 -1.92701 8.6
      vertex 17.225 -15 8.6
      vertex 3.71911 -1.4725 8.6
    endloop
  endfacet
  facet normal -0 0 1
    outer loop
      vertex 3.23607 -2.35114 8.6
      vertex 17.225 -15 8.6
      vertex 3.50523 -1.92701 8.6
    endloop
  endfacet
  facet normal -0 0 1
    outer loop
      vertex 2.91587 -2.73819 8.6
      vertex 17.225 -15 8.6
      vertex 3.23607 -2.35114 8.6
    endloop
  endfacet
  facet normal -0 0 1
    outer loop
      vertex 2.5497 -3.08205 8.6
      vertex 17.225 -15 8.6
      vertex 2.91587 -2.73819 8.6
    endloop
  endfacet
  facet normal -0 0 1
    outer loop
      vertex 2.14331 -3.37731 8.6
      vertex 17.225 -15 8.6
      vertex 2.5497 -3.08205 8.6
    endloop
  endfacet
  facet normal -0 0 1
    outer loop
      vertex 1.70312 -3.61931 8.6
      vertex 17.225 -15 8.6
      vertex 2.14331 -3.37731 8.6
    endloop
  endfacet
  facet normal -0 0 1
    outer loop
      vertex 1.23607 -3.80423 8.6
      vertex 17.225 -15 8.6
      vertex 1.70312 -3.61931 8.6
    endloop
  endfacet
  facet normal -0 0 1
    outer loop
      vertex 0.749526 -3.92915 8.6
      vertex 17.225 -15 8.6
      vertex 1.23607 -3.80423 8.6
    endloop
  endfacet
  facet normal -0 0 1
    outer loop
      vertex 0.251162 -3.99211 8.6
      vertex 17.225 -15 8.6
      vertex 0.749526 -3.92915 8.6
    endloop
  endfacet
  facet normal 0 0 1
    outer loop
      vertex -13.025 -13 8.6
      vertex 0.251162 -3.99211 8.6
      vertex -0.251162 -3.99211 8.6
    endloop
  endfacet
  facet normal 0 0 1
    outer loop
      vertex -13.025 -13 8.6
      vertex -0.251162 -3.99211 8.6
      vertex -0.749524 -3.92915 8.6
    endloop
  endfacet
  facet normal 0 0 1
    outer loop
      vertex -13.025 -13 8.6
      vertex -0.749524 -3.92915 8.6
      vertex -1.23607 -3.80423 8.6
    endloop
  endfacet
  facet normal 0 0 1
    outer loop
      vertex -13.025 -13 8.6
      vertex -1.23607 -3.80423 8.6
      vertex -1.70312 -3.61931 8.6
    endloop
  endfacet
  facet normal 0 0 1
    outer loop
      vertex -13.025 -13 8.6
      vertex -1.70312 -3.61931 8.6
      vertex -2.14331 -3.37731 8.6
    endloop
  endfacet
  facet normal 0 0 1
    outer loop
      vertex -13.025 -13 8.6
      vertex -4 0 8.6
      vertex -13.025 13 8.6
    endloop
  endfacet
  facet normal 0 0 1
    outer loop
      vertex -4 0 8.6
      vertex -13.025 -13 8.6
      vertex -3.96846 -0.501332 8.6
    endloop
  endfacet
  facet normal 0 0 1
    outer loop
      vertex -3.96846 -0.501332 8.6
      vertex -13.025 -13 8.6
      vertex -3.87433 -0.994759 8.6
    endloop
  endfacet
  facet normal 0 0 1
    outer loop
      vertex -3.87433 -0.994759 8.6
      vertex -13.025 -13 8.6
      vertex -3.71911 -1.4725 8.6
    endloop
  endfacet
  facet normal 0 0 1
    outer loop
      vertex -3.71911 -1.4725 8.6
      vertex -13.025 -13 8.6
      vertex -3.50523 -1.92701 8.6
    endloop
  endfacet
  facet normal 0 0 1
    outer loop
      vertex -3.50523 -1.92701 8.6
      vertex -13.025 -13 8.6
      vertex -3.23607 -2.35114 8.6
    endloop
  endfacet
  facet normal 0 0 1
    outer loop
      vertex -13.025 -13 8.6
      vertex -2.91587 -2.73819 8.6
      vertex -3.23607 -2.35114 8.6
    endloop
  endfacet
  facet normal 0 0 1
    outer loop
      vertex -13.025 -13 8.6
      vertex -2.5497 -3.08205 8.6
      vertex -2.91587 -2.73819 8.6
    endloop
  endfacet
  facet normal 0 0 1
    outer loop
      vertex -13.025 -13 8.6
      vertex -2.14331 -3.37731 8.6
      vertex -2.5497 -3.08205 8.6
    endloop
  endfacet
  facet normal 0 0 1
    outer loop
      vertex 0.251162 -3.99211 8.6
      vertex -13.025 -13 8.6
      vertex 17.225 -15 8.6
    endloop
  endfacet
  facet normal 0 0 1
    outer loop
      vertex -21.275 -15 8.6
      vertex -13.025 -13 8.6
      vertex -19.275 -13 8.6
    endloop
  endfacet
  facet normal 0 0 1
    outer loop
      vertex -13.025 -13 8.6
      vertex -21.275 -15 8.6
      vertex 17.225 -15 8.6
    endloop
  endfacet
  facet normal 0 0 1
    outer loop
      vertex -21.275 -15 8.6
      vertex -19.275 -13 8.6
      vertex -21.275 15 8.6
    endloop
  endfacet
  facet normal 0 0 -1
    outer loop
      vertex -21.275 -15 0
      vertex 17.225 15 0
      vertex 17.225 -15 0
    endloop
  endfacet
  facet normal -0 0 -1
    outer loop
      vertex 17.225 15 0
      vertex -21.275 -15 0
      vertex -21.275 15 0
    endloop
  endfacet
  facet normal 0 -1 0
    outer loop
      vertex 17.225 -15 7.62939e-07
      vertex 17.225 -15 8.6
      vertex -21.275 -15 8.6
    endloop
  endfacet
  facet normal 0 -1 0
    outer loop
      vertex 17.225 -15 8.6
      vertex 17.225 -15 7.62939e-07
      vertex 17.725 -15 8.6
    endloop
  endfacet
  facet normal 0 -1 0
    outer loop
      vertex -21.275 -15 0
      vertex 17.225 -15 7.62939e-07
      vertex -21.275 -15 8.6
    endloop
  endfacet
  facet normal 0 -1 -0
    outer loop
      vertex 17.225 -15 7.62939e-07
      vertex -21.275 -15 0
      vertex 17.225 -15 0
    endloop
  endfacet
  facet normal 0 -1 -0
    outer loop
      vertex 17.725 -15 8.6
      vertex 17.225 -15 7.62939e-07
      vertex 17.725 -15 7.62939e-07
    endloop
  endfacet
  facet normal 0 1 0
    outer loop
      vertex 17.225 15 7.62939e-07
      vertex 17.225 15 8.6
      vertex 17.725 15 8.6
    endloop
  endfacet
  facet normal 0 1 0
    outer loop
      vertex 17.225 15 7.62939e-07
      vertex 17.725 15 8.6
      vertex 17.725 15 7.62939e-07
    endloop
  endfacet
  facet normal 0 1 0
    outer loop
      vertex 17.225 15 8.6
      vertex 17.225 15 7.62939e-07
      vertex -21.275 15 8.6
    endloop
  endfacet
  facet normal 0 1 0
    outer loop
      vertex -21.275 15 0
      vertex 17.225 15 7.62939e-07
      vertex 17.225 15 0
    endloop
  endfacet
  facet normal 0 1 0
    outer loop
      vertex 17.225 15 7.62939e-07
      vertex -21.275 15 0
      vertex -21.275 15 8.6
    endloop
  endfacet
  facet normal 1 -0 0
    outer loop
      vertex 17.225 -15 7.62939e-07
      vertex 17.225 15 0
      vertex 17.225 15 7.62939e-07
    endloop
  endfacet
  facet normal 1 0 0
    outer loop
      vertex 17.225 15 0
      vertex 17.225 -15 7.62939e-07
      vertex 17.225 -15 0
    endloop
  endfacet
  facet normal -0 0 1
    outer loop
      vertex 17.225 15 8.6
      vertex 17.725 14.9704 8.6
      vertex 17.725 15 8.6
    endloop
  endfacet
  facet normal 0 0 1
    outer loop
      vertex 17.725 14.9704 8.6
      vertex 17.225 15 8.6
      vertex 17.725 -14.9704 8.6
    endloop
  endfacet
  facet normal 0 0 1
    outer loop
      vertex 17.225 -15 8.6
      vertex 17.725 -14.9704 8.6
      vertex 17.225 15 8.6
    endloop
  endfacet
  facet normal 0 0 1
    outer loop
      vertex 17.725 -14.9704 8.6
      vertex 17.225 -15 8.6
      vertex 17.725 -15 8.6
    endloop
  endfacet
  facet normal 0 0 1
    outer loop
      vertex 17.725 14.9704 8.6
      vertex 25.225 0 8.6
      vertex 25.1659 1.88 8.6
    endloop
  endfacet
  facet normal 0 0 1
    outer loop
      vertex 17.725 14.9704 8.6
      vertex 25.1659 1.88 8.6
      vertex 24.9894 3.73035 8.6
    endloop
  endfacet
  facet normal 0 0 1
    outer loop
      vertex 17.725 -14.9704 8.6
      vertex 25.225 0 8.6
      vertex 17.725 14.9704 8.6
    endloop
  endfacet
  facet normal 0 0 1
    outer loop
      vertex 17.725 14.9704 8.6
      vertex 24.9894 3.73035 8.6
      vertex 24.6983 5.52187 8.6
    endloop
  endfacet
  facet normal 0 0 1
    outer loop
      vertex 25.225 0 8.6
      vertex 17.725 -14.9704 8.6
      vertex 25.1659 -1.88 8.6
    endloop
  endfacet
  facet normal 0 0 1
    outer loop
      vertex 17.725 14.9704 8.6
      vertex 24.6983 5.52187 8.6
      vertex 24.2973 7.22631 8.6
    endloop
  endfacet
  facet normal 0 0 1
    outer loop
      vertex 25.1659 -1.88 8.6
      vertex 17.725 -14.9704 8.6
      vertex 24.9894 -3.73035 8.6
    endloop
  endfacet
  facet normal 0 0 1
    outer loop
      vertex 17.725 14.9704 8.6
      vertex 24.2973 7.22631 8.6
      vertex 23.7926 8.81678 8.6
    endloop
  endfacet
  facet normal 0 0 1
    outer loop
      vertex 24.9894 -3.73035 8.6
      vertex 17.725 -14.9704 8.6
      vertex 24.6983 -5.52187 8.6
    endloop
  endfacet
  facet normal 0 0 1
    outer loop
      vertex 17.725 14.9704 8.6
      vertex 23.7926 8.81678 8.6
      vertex 23.1923 10.2682 8.6
    endloop
  endfacet
  facet normal 0 0 1
    outer loop
      vertex 24.6983 -5.52187 8.6
      vertex 17.725 -14.9704 8.6
      vertex 24.2973 -7.22631 8.6
    endloop
  endfacet
  facet normal 0 0 1
    outer loop
      vertex 17.725 14.9704 8.6
      vertex 23.1923 10.2682 8.6
      vertex 22.5057 11.5577 8.6
    endloop
  endfacet
  facet normal 0 0 1
    outer loop
      vertex 24.2973 -7.22631 8.6
      vertex 17.725 -14.9704 8.6
      vertex 23.7926 -8.81678 8.6
    endloop
  endfacet
  facet normal 0 0 1
    outer loop
      vertex 17.725 14.9704 8.6
      vertex 22.5057 11.5577 8.6
      vertex 21.7437 12.6649 8.6
    endloop
  endfacet
  facet normal 0 0 1
    outer loop
      vertex 23.7926 -8.81678 8.6
      vertex 17.725 -14.9704 8.6
      vertex 23.1923 -10.2682 8.6
    endloop
  endfacet
  facet normal 0 0 1
    outer loop
      vertex 17.725 14.9704 8.6
      vertex 21.7437 12.6649 8.6
      vertex 20.9183 13.5724 8.6
    endloop
  endfacet
  facet normal 0 0 1
    outer loop
      vertex 23.1923 -10.2682 8.6
      vertex 17.725 -14.9704 8.6
      vertex 22.5057 -11.5577 8.6
    endloop
  endfacet
  facet normal 0 0 1
    outer loop
      vertex 17.725 14.9704 8.6
      vertex 20.9183 13.5724 8.6
      vertex 20.0426 14.2658 8.6
    endloop
  endfacet
  facet normal 0 0 1
    outer loop
      vertex 22.5057 -11.5577 8.6
      vertex 17.725 -14.9704 8.6
      vertex 21.7437 -12.6649 8.6
    endloop
  endfacet
  facet normal 0 0 1
    outer loop
      vertex 17.725 14.9704 8.6
      vertex 20.0426 14.2658 8.6
      vertex 19.1304 14.7343 8.6
    endloop
  endfacet
  facet normal 0 0 1
    outer loop
      vertex 21.7437 -12.6649 8.6
      vertex 17.725 -14.9704 8.6
      vertex 20.9183 -13.5724 8.6
    endloop
  endfacet
  facet normal -0 0 1
    outer loop
      vertex 17.725 14.9704 8.6
      vertex 19.1304 14.7343 8.6
      vertex 18.1959 14.9704 8.6
    endloop
  endfacet
  facet normal 0 0 1
    outer loop
      vertex 20.9183 -13.5724 8.6
      vertex 17.725 -14.9704 8.6
      vertex 20.0426 -14.2658 8.6
    endloop
  endfacet
  facet normal 0 0 1
    outer loop
      vertex 20.0426 -14.2658 8.6
      vertex 17.725 -14.9704 8.6
      vertex 19.1304 -14.7343 8.6
    endloop
  endfacet
  facet normal 0 0 1
    outer loop
      vertex 19.1304 -14.7343 8.6
      vertex 17.725 -14.9704 8.6
      vertex 18.1959 -14.9704 8.6
    endloop
  endfacet
  facet normal 1 -0 0
    outer loop
      vertex 17.725 -15 8.6
      vertex 17.725 -14.9704 7.62939e-07
      vertex 17.725 -14.9704 8.6
    endloop
  endfacet
  facet normal 1 0 0
    outer loop
      vertex 17.725 -14.9704 7.62939e-07
      vertex 17.725 -15 8.6
      vertex 17.725 -15 7.62939e-07
    endloop
  endfacet
  facet normal 1 -0 0
    outer loop
      vertex 17.725 14.9704 8.6
      vertex 17.725 15 7.62939e-07
      vertex 17.725 15 8.6
    endloop
  endfacet
  facet normal 1 0 0
    outer loop
      vertex 17.725 15 7.62939e-07
      vertex 17.725 14.9704 8.6
      vertex 17.725 14.9704 7.62939e-07
    endloop
  endfacet
  facet normal 0 0 -1
    outer loop
      vertex 17.225 -15 7.62939e-07
      vertex 17.725 -14.9704 7.62939e-07
      vertex 17.725 -15 7.62939e-07
    endloop
  endfacet
  facet normal -0 0 -1
    outer loop
      vertex 17.725 -14.9704 7.62939e-07
      vertex 17.225 -15 7.62939e-07
      vertex 17.725 14.9704 7.62939e-07
    endloop
  endfacet
  facet normal 0 0 -1
    outer loop
      vertex 17.225 15 7.62939e-07
      vertex 17.725 14.9704 7.62939e-07
      vertex 17.225 -15 7.62939e-07
    endloop
  endfacet
  facet normal 0 0 -1
    outer loop
      vertex 17.725 14.9704 7.62939e-07
      vertex 17.225 15 7.62939e-07
      vertex 17.725 15 7.62939e-07
    endloop
  endfacet
  facet normal 0 0 -1
    outer loop
      vertex 17.725 -14.9704 7.62939e-07
      vertex 25.225 0 7.62939e-07
      vertex 25.1659 -1.88 7.62939e-07
    endloop
  endfacet
  facet normal 0 0 -1
    outer loop
      vertex 17.725 -14.9704 7.62939e-07
      vertex 25.1659 -1.88 7.62939e-07
      vertex 24.9894 -3.73035 7.62939e-07
    endloop
  endfacet
  facet normal 0 0 -1
    outer loop
      vertex 17.725 14.9704 7.62939e-07
      vertex 25.225 0 7.62939e-07
      vertex 17.725 -14.9704 7.62939e-07
    endloop
  endfacet
  facet normal 0 0 -1
    outer loop
      vertex 17.725 -14.9704 7.62939e-07
      vertex 24.9894 -3.73035 7.62939e-07
      vertex 24.6983 -5.52187 7.62939e-07
    endloop
  endfacet
  facet normal 0 0 -1
    outer loop
      vertex 25.225 0 7.62939e-07
      vertex 17.725 14.9704 7.62939e-07
      vertex 25.1659 1.88 7.62939e-07
    endloop
  endfacet
  facet normal 0 0 -1
    outer loop
      vertex 17.725 -14.9704 7.62939e-07
      vertex 24.6983 -5.52187 7.62939e-07
      vertex 24.2973 -7.22631 7.62939e-07
    endloop
  endfacet
  facet normal 0 0 -1
    outer loop
      vertex 25.1659 1.88 7.62939e-07
      vertex 17.725 14.9704 7.62939e-07
      vertex 24.9894 3.73035 7.62939e-07
    endloop
  endfacet
  facet normal 0 0 -1
    outer loop
      vertex 17.725 -14.9704 7.62939e-07
      vertex 24.2973 -7.22631 7.62939e-07
      vertex 23.7926 -8.81678 7.62939e-07
    endloop
  endfacet
  facet normal 0 0 -1
    outer loop
      vertex 24.9894 3.73035 7.62939e-07
      vertex 17.725 14.9704 7.62939e-07
      vertex 24.6983 5.52187 7.62939e-07
    endloop
  endfacet
  facet normal 0 0 -1
    outer loop
      vertex 17.725 -14.9704 7.62939e-07
      vertex 23.7926 -8.81678 7.62939e-07
      vertex 23.1923 -10.2682 7.62939e-07
    endloop
  endfacet
  facet normal 0 0 -1
    outer loop
      vertex 24.6983 5.52187 7.62939e-07
      vertex 17.725 14.9704 7.62939e-07
      vertex 24.2973 7.22631 7.62939e-07
    endloop
  endfacet
  facet normal 0 0 -1
    outer loop
      vertex 17.725 -14.9704 7.62939e-07
      vertex 23.1923 -10.2682 7.62939e-07
      vertex 22.5057 -11.5577 7.62939e-07
    endloop
  endfacet
  facet normal 0 0 -1
    outer loop
      vertex 24.2973 7.22631 7.62939e-07
      vertex 17.725 14.9704 7.62939e-07
      vertex 23.7926 8.81678 7.62939e-07
    endloop
  endfacet
  facet normal 0 0 -1
    outer loop
      vertex 17.725 -14.9704 7.62939e-07
      vertex 22.5057 -11.5577 7.62939e-07
      vertex 21.7437 -12.6649 7.62939e-07
    endloop
  endfacet
  facet normal 0 0 -1
    outer loop
      vertex 23.7926 8.81678 7.62939e-07
      vertex 17.725 14.9704 7.62939e-07
      vertex 23.1923 10.2682 7.62939e-07
    endloop
  endfacet
  facet normal 0 0 -1
    outer loop
      vertex 17.725 -14.9704 7.62939e-07
      vertex 21.7437 -12.6649 7.62939e-07
      vertex 20.9183 -13.5724 7.62939e-07
    endloop
  endfacet
  facet normal 0 0 -1
    outer loop
      vertex 23.1923 10.2682 7.62939e-07
      vertex 17.725 14.9704 7.62939e-07
      vertex 22.5057 11.5577 7.62939e-07
    endloop
  endfacet
  facet normal 0 0 -1
    outer loop
      vertex 17.725 -14.9704 7.62939e-07
      vertex 20.9183 -13.5724 7.62939e-07
      vertex 20.0426 -14.2658 7.62939e-07
    endloop
  endfacet
  facet normal 0 0 -1
    outer loop
      vertex 22.5057 11.5577 7.62939e-07
      vertex 17.725 14.9704 7.62939e-07
      vertex 21.7437 12.6649 7.62939e-07
    endloop
  endfacet
  facet normal 0 0 -1
    outer loop
      vertex 17.725 -14.9704 7.62939e-07
      vertex 20.0426 -14.2658 7.62939e-07
      vertex 19.1304 -14.7343 7.62939e-07
    endloop
  endfacet
  facet normal 0 0 -1
    outer loop
      vertex 21.7437 12.6649 7.62939e-07
      vertex 17.725 14.9704 7.62939e-07
      vertex 20.9183 13.5724 7.62939e-07
    endloop
  endfacet
  facet normal 0 0 -1
    outer loop
      vertex 17.725 -14.9704 7.62939e-07
      vertex 19.1304 -14.7343 7.62939e-07
      vertex 18.1959 -14.9704 7.62939e-07
    endloop
  endfacet
  facet normal 0 0 -1
    outer loop
      vertex 20.9183 13.5724 7.62939e-07
      vertex 17.725 14.9704 7.62939e-07
      vertex 20.0426 14.2658 7.62939e-07
    endloop
  endfacet
  facet normal 0 0 -1
    outer loop
      vertex 20.0426 14.2658 7.62939e-07
      vertex 17.725 14.9704 7.62939e-07
      vertex 19.1304 14.7343 7.62939e-07
    endloop
  endfacet
  facet normal 0 0 -1
    outer loop
      vertex 19.1304 14.7343 7.62939e-07
      vertex 17.725 14.9704 7.62939e-07
      vertex 18.1959 14.9704 7.62939e-07
    endloop
  endfacet
  facet normal 0.999506 0.0314425 0
    outer loop
      vertex 25.225 0 8.6
      vertex 25.1659 1.88 7.62939e-07
      vertex 25.1659 1.88 8.6
    endloop
  endfacet
  facet normal 0.999506 0.0314425 0
    outer loop
      vertex 25.1659 1.88 7.62939e-07
      vertex 25.225 0 8.6
      vertex 25.225 0 7.62939e-07
    endloop
  endfacet
  facet normal 0 1 -0
    outer loop
      vertex 18.1959 14.9704 7.62939e-07
      vertex 17.725 14.9704 8.6
      vertex 18.1959 14.9704 8.6
    endloop
  endfacet
  facet normal 0 1 0
    outer loop
      vertex 17.725 14.9704 8.6
      vertex 18.1959 14.9704 7.62939e-07
      vertex 17.725 14.9704 7.62939e-07
    endloop
  endfacet
  facet normal 0 -1 0
    outer loop
      vertex 17.725 -14.9704 7.62939e-07
      vertex 18.1959 -14.9704 8.6
      vertex 17.725 -14.9704 8.6
    endloop
  endfacet
  facet normal 0 -1 -0
    outer loop
      vertex 18.1959 -14.9704 8.6
      vertex 17.725 -14.9704 7.62939e-07
      vertex 18.1959 -14.9704 7.62939e-07
    endloop
  endfacet
  facet normal 0.924068 -0.382228 0
    outer loop
      vertex 23.1923 -10.2682 8.6
      vertex 23.7926 -8.81678 7.62939e-07
      vertex 23.7926 -8.81678 8.6
    endloop
  endfacet
  facet normal 0.924068 -0.382228 0
    outer loop
      vertex 23.7926 -8.81678 7.62939e-07
      vertex 23.1923 -10.2682 8.6
      vertex 23.1923 -10.2682 7.62939e-07
    endloop
  endfacet
  facet normal 0.882678 0.469978 0
    outer loop
      vertex 23.1923 10.2682 8.6
      vertex 22.5057 11.5577 7.62939e-07
      vertex 22.5057 11.5577 8.6
    endloop
  endfacet
  facet normal 0.882678 0.469978 0
    outer loop
      vertex 22.5057 11.5577 7.62939e-07
      vertex 23.1923 10.2682 8.6
      vertex 23.1923 10.2682 7.62939e-07
    endloop
  endfacet
  facet normal 0.987059 -0.160357 0
    outer loop
      vertex 24.6983 -5.52187 8.6
      vertex 24.9894 -3.73035 7.62939e-07
      vertex 24.9894 -3.73035 8.6
    endloop
  endfacet
  facet normal 0.987059 -0.160357 0
    outer loop
      vertex 24.9894 -3.73035 7.62939e-07
      vertex 24.6983 -5.52187 8.6
      vertex 24.6983 -5.52187 7.62939e-07
    endloop
  endfacet
  facet normal 0.97342 0.229027 0
    outer loop
      vertex 24.6983 5.52187 8.6
      vertex 24.2973 7.22631 7.62939e-07
      vertex 24.2973 7.22631 8.6
    endloop
  endfacet
  facet normal 0.97342 0.229027 0
    outer loop
      vertex 24.2973 7.22631 7.62939e-07
      vertex 24.6983 5.52187 8.6
      vertex 24.6983 5.52187 7.62939e-07
    endloop
  endfacet
  facet normal 0.953166 0.302449 0
    outer loop
      vertex 24.2973 7.22631 8.6
      vertex 23.7926 8.81678 7.62939e-07
      vertex 23.7926 8.81678 8.6
    endloop
  endfacet
  facet normal 0.953166 0.302449 0
    outer loop
      vertex 23.7926 8.81678 7.62939e-07
      vertex 24.2973 7.22631 8.6
      vertex 24.2973 7.22631 7.62939e-07
    endloop
  endfacet
  facet normal 0.620794 0.783973 -0
    outer loop
      vertex 20.9183 13.5724 7.62939e-07
      vertex 20.0426 14.2658 8.6
      vertex 20.9183 13.5724 8.6
    endloop
  endfacet
  facet normal 0.620794 0.783973 0
    outer loop
      vertex 20.0426 14.2658 8.6
      vertex 20.9183 13.5724 7.62939e-07
      vertex 20.0426 14.2658 7.62939e-07
    endloop
  endfacet
  facet normal 0.823776 0.566916 0
    outer loop
      vertex 22.5057 11.5577 8.6
      vertex 21.7437 12.6649 7.62939e-07
      vertex 21.7437 12.6649 8.6
    endloop
  endfacet
  facet normal 0.823776 0.566916 0
    outer loop
      vertex 21.7437 12.6649 7.62939e-07
      vertex 22.5057 11.5577 8.6
      vertex 22.5057 11.5577 7.62939e-07
    endloop
  endfacet
  facet normal 0.995482 -0.0949494 0
    outer loop
      vertex 24.9894 -3.73035 8.6
      vertex 25.1659 -1.88 7.62939e-07
      vertex 25.1659 -1.88 8.6
    endloop
  endfacet
  facet normal 0.995482 -0.0949494 0
    outer loop
      vertex 25.1659 -1.88 7.62939e-07
      vertex 24.9894 -3.73035 8.6
      vertex 24.9894 -3.73035 7.62939e-07
    endloop
  endfacet
  facet normal 0.620794 -0.783973 0
    outer loop
      vertex 20.0426 -14.2658 7.62939e-07
      vertex 20.9183 -13.5724 8.6
      vertex 20.0426 -14.2658 8.6
    endloop
  endfacet
  facet normal 0.620794 -0.783973 0
    outer loop
      vertex 20.9183 -13.5724 8.6
      vertex 20.0426 -14.2658 7.62939e-07
      vertex 20.9183 -13.5724 7.62939e-07
    endloop
  endfacet
  facet normal 0.739791 -0.672837 0
    outer loop
      vertex 20.9183 -13.5724 8.6
      vertex 21.7437 -12.6649 7.62939e-07
      vertex 21.7437 -12.6649 8.6
    endloop
  endfacet
  facet normal 0.739791 -0.672837 0
    outer loop
      vertex 21.7437 -12.6649 7.62939e-07
      vertex 20.9183 -13.5724 8.6
      vertex 20.9183 -13.5724 7.62939e-07
    endloop
  endfacet
  facet normal 0.987059 0.160357 0
    outer loop
      vertex 24.9894 3.73035 8.6
      vertex 24.6983 5.52187 7.62939e-07
      vertex 24.6983 5.52187 8.6
    endloop
  endfacet
  facet normal 0.987059 0.160357 0
    outer loop
      vertex 24.6983 5.52187 7.62939e-07
      vertex 24.9894 3.73035 8.6
      vertex 24.9894 3.73035 7.62939e-07
    endloop
  endfacet
  facet normal 0.995482 0.0949494 0
    outer loop
      vertex 25.1659 1.88 8.6
      vertex 24.9894 3.73035 7.62939e-07
      vertex 24.9894 3.73035 8.6
    endloop
  endfacet
  facet normal 0.995482 0.0949494 0
    outer loop
      vertex 24.9894 3.73035 7.62939e-07
      vertex 25.1659 1.88 8.6
      vertex 25.1659 1.88 7.62939e-07
    endloop
  endfacet
  facet normal 0.924068 0.382228 0
    outer loop
      vertex 23.7926 8.81678 8.6
      vertex 23.1923 10.2682 7.62939e-07
      vertex 23.1923 10.2682 8.6
    endloop
  endfacet
  facet normal 0.924068 0.382228 0
    outer loop
      vertex 23.1923 10.2682 7.62939e-07
      vertex 23.7926 8.81678 8.6
      vertex 23.7926 8.81678 7.62939e-07
    endloop
  endfacet
  facet normal 0.456804 0.889567 -0
    outer loop
      vertex 20.0426 14.2658 7.62939e-07
      vertex 19.1304 14.7343 8.6
      vertex 20.0426 14.2658 8.6
    endloop
  endfacet
  facet normal 0.456804 0.889567 0
    outer loop
      vertex 19.1304 14.7343 8.6
      vertex 20.0426 14.2658 7.62939e-07
      vertex 19.1304 14.7343 7.62939e-07
    endloop
  endfacet
  facet normal 0.244961 0.969533 -0
    outer loop
      vertex 19.1304 14.7343 7.62939e-07
      vertex 18.1959 14.9704 8.6
      vertex 19.1304 14.7343 8.6
    endloop
  endfacet
  facet normal 0.244961 0.969533 0
    outer loop
      vertex 18.1959 14.9704 8.6
      vertex 19.1304 14.7343 7.62939e-07
      vertex 18.1959 14.9704 7.62939e-07
    endloop
  endfacet
  facet normal 0.739791 0.672837 0
    outer loop
      vertex 21.7437 12.6649 8.6
      vertex 20.9183 13.5724 7.62939e-07
      vertex 20.9183 13.5724 8.6
    endloop
  endfacet
  facet normal 0.739791 0.672837 0
    outer loop
      vertex 20.9183 13.5724 7.62939e-07
      vertex 21.7437 12.6649 8.6
      vertex 21.7437 12.6649 7.62939e-07
    endloop
  endfacet
  facet normal 0.999506 -0.0314425 0
    outer loop
      vertex 25.1659 -1.88 8.6
      vertex 25.225 0 7.62939e-07
      vertex 25.225 0 8.6
    endloop
  endfacet
  facet normal 0.999506 -0.0314425 0
    outer loop
      vertex 25.225 0 7.62939e-07
      vertex 25.1659 -1.88 8.6
      vertex 25.1659 -1.88 7.62939e-07
    endloop
  endfacet
  facet normal 0.953166 -0.302449 0
    outer loop
      vertex 23.7926 -8.81678 8.6
      vertex 24.2973 -7.22631 7.62939e-07
      vertex 24.2973 -7.22631 8.6
    endloop
  endfacet
  facet normal 0.953166 -0.302449 0
    outer loop
      vertex 24.2973 -7.22631 7.62939e-07
      vertex 23.7926 -8.81678 8.6
      vertex 23.7926 -8.81678 7.62939e-07
    endloop
  endfacet
  facet normal 0.823776 -0.566916 0
    outer loop
      vertex 21.7437 -12.6649 8.6
      vertex 22.5057 -11.5577 7.62939e-07
      vertex 22.5057 -11.5577 8.6
    endloop
  endfacet
  facet normal 0.823776 -0.566916 0
    outer loop
      vertex 22.5057 -11.5577 7.62939e-07
      vertex 21.7437 -12.6649 8.6
      vertex 21.7437 -12.6649 7.62939e-07
    endloop
  endfacet
  facet normal 0.97342 -0.229027 0
    outer loop
      vertex 24.2973 -7.22631 8.6
      vertex 24.6983 -5.52187 7.62939e-07
      vertex 24.6983 -5.52187 8.6
    endloop
  endfacet
  facet normal 0.97342 -0.229027 0
    outer loop
      vertex 24.6983 -5.52187 7.62939e-07
      vertex 24.2973 -7.22631 8.6
      vertex 24.2973 -7.22631 7.62939e-07
    endloop
  endfacet
  facet normal 0.244961 -0.969533 0
    outer loop
      vertex 18.1959 -14.9704 7.62939e-07
      vertex 19.1304 -14.7343 8.6
      vertex 18.1959 -14.9704 8.6
    endloop
  endfacet
  facet normal 0.244961 -0.969533 0
    outer loop
      vertex 19.1304 -14.7343 8.6
      vertex 18.1959 -14.9704 7.62939e-07
      vertex 19.1304 -14.7343 7.62939e-07
    endloop
  endfacet
  facet normal 0.882678 -0.469978 0
    outer loop
      vertex 22.5057 -11.5577 8.6
      vertex 23.1923 -10.2682 7.62939e-07
      vertex 23.1923 -10.2682 8.6
    endloop
  endfacet
  facet normal 0.882678 -0.469978 0
    outer loop
      vertex 23.1923 -10.2682 7.62939e-07
      vertex 22.5057 -11.5577 8.6
      vertex 22.5057 -11.5577 7.62939e-07
    endloop
  endfacet
  facet normal 0.456804 -0.889567 0
    outer loop
      vertex 19.1304 -14.7343 7.62939e-07
      vertex 20.0426 -14.2658 8.6
      vertex 19.1304 -14.7343 8.6
    endloop
  endfacet
  facet normal 0.456804 -0.889567 0
    outer loop
      vertex 20.0426 -14.2658 8.6
      vertex 19.1304 -14.7343 7.62939e-07
      vertex 20.0426 -14.2658 7.62939e-07
    endloop
  endfacet
  facet normal -0.998027 -0.06279 0
    outer loop
      vertex 4 0 0.25
      vertex 3.96846 0.501332 8.6
      vertex 3.96846 0.501332 0.25
    endloop
  endfacet
  facet normal -0.998027 -0.06279 0
    outer loop
      vertex 3.96846 0.501332 8.6
      vertex 4 0 0.25
      vertex 4 0 8.6
    endloop
  endfacet
  facet normal 0.998027 -0.06279 0
    outer loop
      vertex -4 0 8.6
      vertex -3.96846 0.501332 0.25
      vertex -3.96846 0.501332 8.6
    endloop
  endfacet
  facet normal 0.998027 -0.06279 0
    outer loop
      vertex -3.96846 0.501332 0.25
      vertex -4 0 8.6
      vertex -4 0 0.25
    endloop
  endfacet
  facet normal 0 -1 0
    outer loop
      vertex -0.251162 3.99211 0.25
      vertex 0.251162 3.99211 8.6
      vertex -0.251162 3.99211 8.6
    endloop
  endfacet
  facet normal 0 -1 -0
    outer loop
      vertex 0.251162 3.99211 8.6
      vertex -0.251162 3.99211 0.25
      vertex 0.251162 3.99211 0.25
    endloop
  endfacet
  facet normal 0 1 -0
    outer loop
      vertex 0.251162 -3.99211 0.25
      vertex -0.251162 -3.99211 8.6
      vertex 0.251162 -3.99211 8.6
    endloop
  endfacet
  facet normal 0 1 0
    outer loop
      vertex -0.251162 -3.99211 8.6
      vertex 0.251162 -3.99211 0.25
      vertex -0.251162 -3.99211 0.25
    endloop
  endfacet
  facet normal -0.684547 -0.728969 0
    outer loop
      vertex 2.5497 3.08205 0.25
      vertex 2.91587 2.73819 8.6
      vertex 2.5497 3.08205 8.6
    endloop
  endfacet
  facet normal -0.684547 -0.728969 -0
    outer loop
      vertex 2.91587 2.73819 8.6
      vertex 2.5497 3.08205 0.25
      vertex 2.91587 2.73819 0.25
    endloop
  endfacet
  facet normal 0.684547 -0.728969 0
    outer loop
      vertex -2.91587 2.73819 0.25
      vertex -2.5497 3.08205 8.6
      vertex -2.91587 2.73819 8.6
    endloop
  endfacet
  facet normal 0.684547 -0.728969 0
    outer loop
      vertex -2.5497 3.08205 8.6
      vertex -2.91587 2.73819 0.25
      vertex -2.5497 3.08205 0.25
    endloop
  endfacet
  facet normal 0.368125 -0.929776 0
    outer loop
      vertex -1.70312 3.61931 0.25
      vertex -1.23607 3.80423 8.6
      vertex -1.70312 3.61931 8.6
    endloop
  endfacet
  facet normal 0.368125 -0.929776 0
    outer loop
      vertex -1.23607 3.80423 8.6
      vertex -1.70312 3.61931 0.25
      vertex -1.23607 3.80423 0.25
    endloop
  endfacet
  facet normal -0.844328 0.535827 0
    outer loop
      vertex 3.23607 -2.35114 0.25
      vertex 3.50523 -1.92701 8.6
      vertex 3.50523 -1.92701 0.25
    endloop
  endfacet
  facet normal -0.844328 0.535827 0
    outer loop
      vertex 3.50523 -1.92701 8.6
      vertex 3.23607 -2.35114 0.25
      vertex 3.23607 -2.35114 8.6
    endloop
  endfacet
  facet normal -0.904827 -0.425778 0
    outer loop
      vertex 3.71911 1.4725 0.25
      vertex 3.50523 1.92701 8.6
      vertex 3.50523 1.92701 0.25
    endloop
  endfacet
  facet normal -0.904827 -0.425778 0
    outer loop
      vertex 3.50523 1.92701 8.6
      vertex 3.71911 1.4725 0.25
      vertex 3.71911 1.4725 8.6
    endloop
  endfacet
  facet normal -0.844328 -0.535827 0
    outer loop
      vertex 3.50523 1.92701 0.25
      vertex 3.23607 2.35114 8.6
      vertex 3.23607 2.35114 0.25
    endloop
  endfacet
  facet normal -0.844328 -0.535827 0
    outer loop
      vertex 3.23607 2.35114 8.6
      vertex 3.50523 1.92701 0.25
      vertex 3.50523 1.92701 8.6
    endloop
  endfacet
  facet normal -0.368125 -0.929776 0
    outer loop
      vertex 1.23607 3.80423 0.25
      vertex 1.70312 3.61931 8.6
      vertex 1.23607 3.80423 8.6
    endloop
  endfacet
  facet normal -0.368125 -0.929776 -0
    outer loop
      vertex 1.70312 3.61931 8.6
      vertex 1.23607 3.80423 0.25
      vertex 1.70312 3.61931 0.25
    endloop
  endfacet
  facet normal -0.24869 -0.968583 0
    outer loop
      vertex 0.749526 3.92915 0.25
      vertex 1.23607 3.80423 8.6
      vertex 0.749526 3.92915 8.6
    endloop
  endfacet
  facet normal -0.24869 -0.968583 -0
    outer loop
      vertex 1.23607 3.80423 8.6
      vertex 0.749526 3.92915 0.25
      vertex 1.23607 3.80423 0.25
    endloop
  endfacet
  facet normal -0.481755 -0.876306 0
    outer loop
      vertex 1.70312 3.61931 0.25
      vertex 2.14331 3.37731 8.6
      vertex 1.70312 3.61931 8.6
    endloop
  endfacet
  facet normal -0.481755 -0.876306 -0
    outer loop
      vertex 2.14331 3.37731 8.6
      vertex 1.70312 3.61931 0.25
      vertex 2.14331 3.37731 0.25
    endloop
  endfacet
  facet normal 0.904827 -0.425778 0
    outer loop
      vertex -3.71911 1.4725 8.6
      vertex -3.50523 1.92701 0.25
      vertex -3.50523 1.92701 8.6
    endloop
  endfacet
  facet normal 0.904827 -0.425778 0
    outer loop
      vertex -3.50523 1.92701 0.25
      vertex -3.71911 1.4725 8.6
      vertex -3.71911 1.4725 0.25
    endloop
  endfacet
  facet normal 0.481754 -0.876307 0
    outer loop
      vertex -2.14331 3.37731 0.25
      vertex -1.70312 3.61931 8.6
      vertex -2.14331 3.37731 8.6
    endloop
  endfacet
  facet normal 0.481754 -0.876307 0
    outer loop
      vertex -1.70312 3.61931 8.6
      vertex -2.14331 3.37731 0.25
      vertex -1.70312 3.61931 0.25
    endloop
  endfacet
  facet normal 0.24869 -0.968583 0
    outer loop
      vertex -1.23607 3.80423 0.25
      vertex -0.749524 3.92915 8.6
      vertex -1.23607 3.80423 8.6
    endloop
  endfacet
  facet normal 0.24869 -0.968583 0
    outer loop
      vertex -0.749524 3.92915 8.6
      vertex -1.23607 3.80423 0.25
      vertex -0.749524 3.92915 0.25
    endloop
  endfacet
  facet normal -0.982287 0.187382 0
    outer loop
      vertex 3.87433 -0.994759 0.25
      vertex 3.96846 -0.501332 8.6
      vertex 3.96846 -0.501332 0.25
    endloop
  endfacet
  facet normal -0.982287 0.187382 0
    outer loop
      vertex 3.96846 -0.501332 8.6
      vertex 3.87433 -0.994759 0.25
      vertex 3.87433 -0.994759 8.6
    endloop
  endfacet
  facet normal -0.368125 0.929776 0
    outer loop
      vertex 1.70312 -3.61931 0.25
      vertex 1.23607 -3.80423 8.6
      vertex 1.70312 -3.61931 8.6
    endloop
  endfacet
  facet normal -0.368125 0.929776 0
    outer loop
      vertex 1.23607 -3.80423 8.6
      vertex 1.70312 -3.61931 0.25
      vertex 1.23607 -3.80423 0.25
    endloop
  endfacet
  facet normal -0.951057 -0.309017 0
    outer loop
      vertex 3.87433 0.994759 0.25
      vertex 3.71911 1.4725 8.6
      vertex 3.71911 1.4725 0.25
    endloop
  endfacet
  facet normal -0.951057 -0.309017 0
    outer loop
      vertex 3.71911 1.4725 8.6
      vertex 3.87433 0.994759 0.25
      vertex 3.87433 0.994759 8.6
    endloop
  endfacet
  facet normal -0.982287 -0.187382 0
    outer loop
      vertex 3.96846 0.501332 0.25
      vertex 3.87433 0.994759 8.6
      vertex 3.87433 0.994759 0.25
    endloop
  endfacet
  facet normal -0.982287 -0.187382 0
    outer loop
      vertex 3.87433 0.994759 8.6
      vertex 3.96846 0.501332 0.25
      vertex 3.96846 0.501332 8.6
    endloop
  endfacet
  facet normal -0.770513 -0.637424 0
    outer loop
      vertex 3.23607 2.35114 0.25
      vertex 2.91587 2.73819 8.6
      vertex 2.91587 2.73819 0.25
    endloop
  endfacet
  facet normal -0.770513 -0.637424 0
    outer loop
      vertex 2.91587 2.73819 8.6
      vertex 3.23607 2.35114 0.25
      vertex 3.23607 2.35114 8.6
    endloop
  endfacet
  facet normal -0.125333 -0.992115 0
    outer loop
      vertex 0.251162 3.99211 0.25
      vertex 0.749526 3.92915 8.6
      vertex 0.251162 3.99211 8.6
    endloop
  endfacet
  facet normal -0.125333 -0.992115 -0
    outer loop
      vertex 0.749526 3.92915 8.6
      vertex 0.251162 3.99211 0.25
      vertex 0.749526 3.92915 0.25
    endloop
  endfacet
  facet normal -0.587785 -0.809018 0
    outer loop
      vertex 2.14331 3.37731 0.25
      vertex 2.5497 3.08205 8.6
      vertex 2.14331 3.37731 8.6
    endloop
  endfacet
  facet normal -0.587785 -0.809018 -0
    outer loop
      vertex 2.5497 3.08205 8.6
      vertex 2.14331 3.37731 0.25
      vertex 2.5497 3.08205 0.25
    endloop
  endfacet
  facet normal 0.844328 -0.535827 0
    outer loop
      vertex -3.50523 1.92701 8.6
      vertex -3.23607 2.35114 0.25
      vertex -3.23607 2.35114 8.6
    endloop
  endfacet
  facet normal 0.844328 -0.535827 0
    outer loop
      vertex -3.23607 2.35114 0.25
      vertex -3.50523 1.92701 8.6
      vertex -3.50523 1.92701 0.25
    endloop
  endfacet
  facet normal 0.770513 -0.637424 0
    outer loop
      vertex -3.23607 2.35114 8.6
      vertex -2.91587 2.73819 0.25
      vertex -2.91587 2.73819 8.6
    endloop
  endfacet
  facet normal 0.770513 -0.637424 0
    outer loop
      vertex -2.91587 2.73819 0.25
      vertex -3.23607 2.35114 8.6
      vertex -3.23607 2.35114 0.25
    endloop
  endfacet
  facet normal 0.951057 -0.309017 0
    outer loop
      vertex -3.87433 0.994759 8.6
      vertex -3.71911 1.4725 0.25
      vertex -3.71911 1.4725 8.6
    endloop
  endfacet
  facet normal 0.951057 -0.309017 0
    outer loop
      vertex -3.71911 1.4725 0.25
      vertex -3.87433 0.994759 8.6
      vertex -3.87433 0.994759 0.25
    endloop
  endfacet
  facet normal 0.982287 -0.187382 0
    outer loop
      vertex -3.96846 0.501332 8.6
      vertex -3.87433 0.994759 0.25
      vertex -3.87433 0.994759 8.6
    endloop
  endfacet
  facet normal 0.982287 -0.187382 0
    outer loop
      vertex -3.87433 0.994759 0.25
      vertex -3.96846 0.501332 8.6
      vertex -3.96846 0.501332 0.25
    endloop
  endfacet
  facet normal 0.587785 -0.809017 0
    outer loop
      vertex -2.5497 3.08205 0.25
      vertex -2.14331 3.37731 8.6
      vertex -2.5497 3.08205 8.6
    endloop
  endfacet
  facet normal 0.587785 -0.809017 0
    outer loop
      vertex -2.14331 3.37731 8.6
      vertex -2.5497 3.08205 0.25
      vertex -2.14331 3.37731 0.25
    endloop
  endfacet
  facet normal 0.125333 -0.992115 0
    outer loop
      vertex -0.749524 3.92915 0.25
      vertex -0.251162 3.99211 8.6
      vertex -0.749524 3.92915 8.6
    endloop
  endfacet
  facet normal 0.125333 -0.992115 0
    outer loop
      vertex -0.251162 3.99211 8.6
      vertex -0.749524 3.92915 0.25
      vertex -0.251162 3.99211 0.25
    endloop
  endfacet
  facet normal -0.998027 0.06279 0
    outer loop
      vertex 3.96846 -0.501332 0.25
      vertex 4 0 8.6
      vertex 4 0 0.25
    endloop
  endfacet
  facet normal -0.998027 0.06279 0
    outer loop
      vertex 4 0 8.6
      vertex 3.96846 -0.501332 0.25
      vertex 3.96846 -0.501332 8.6
    endloop
  endfacet
  facet normal -0.481755 0.876306 0
    outer loop
      vertex 2.14331 -3.37731 0.25
      vertex 1.70312 -3.61931 8.6
      vertex 2.14331 -3.37731 8.6
    endloop
  endfacet
  facet normal -0.481755 0.876306 0
    outer loop
      vertex 1.70312 -3.61931 8.6
      vertex 2.14331 -3.37731 0.25
      vertex 1.70312 -3.61931 0.25
    endloop
  endfacet
  facet normal 0.684547 0.728969 -0
    outer loop
      vertex -2.5497 -3.08205 0.25
      vertex -2.91587 -2.73819 8.6
      vertex -2.5497 -3.08205 8.6
    endloop
  endfacet
  facet normal 0.684547 0.728969 0
    outer loop
      vertex -2.91587 -2.73819 8.6
      vertex -2.5497 -3.08205 0.25
      vertex -2.91587 -2.73819 0.25
    endloop
  endfacet
  facet normal 0.904827 0.425778 0
    outer loop
      vertex -3.50523 -1.92701 8.6
      vertex -3.71911 -1.4725 0.25
      vertex -3.71911 -1.4725 8.6
    endloop
  endfacet
  facet normal 0.904827 0.425778 0
    outer loop
      vertex -3.71911 -1.4725 0.25
      vertex -3.50523 -1.92701 8.6
      vertex -3.50523 -1.92701 0.25
    endloop
  endfacet
  facet normal 0.844328 0.535827 0
    outer loop
      vertex -3.23607 -2.35114 8.6
      vertex -3.50523 -1.92701 0.25
      vertex -3.50523 -1.92701 8.6
    endloop
  endfacet
  facet normal 0.844328 0.535827 0
    outer loop
      vertex -3.50523 -1.92701 0.25
      vertex -3.23607 -2.35114 8.6
      vertex -3.23607 -2.35114 0.25
    endloop
  endfacet
  facet normal 0.998027 0.06279 0
    outer loop
      vertex -3.96846 -0.501332 8.6
      vertex -4 0 0.25
      vertex -4 0 8.6
    endloop
  endfacet
  facet normal 0.998027 0.06279 0
    outer loop
      vertex -4 0 0.25
      vertex -3.96846 -0.501332 8.6
      vertex -3.96846 -0.501332 0.25
    endloop
  endfacet
  facet normal -0.904827 0.425778 0
    outer loop
      vertex 3.50523 -1.92701 0.25
      vertex 3.71911 -1.4725 8.6
      vertex 3.71911 -1.4725 0.25
    endloop
  endfacet
  facet normal -0.904827 0.425778 0
    outer loop
      vertex 3.71911 -1.4725 8.6
      vertex 3.50523 -1.92701 0.25
      vertex 3.50523 -1.92701 8.6
    endloop
  endfacet
  facet normal -0.951057 0.309017 0
    outer loop
      vertex 3.71911 -1.4725 0.25
      vertex 3.87433 -0.994759 8.6
      vertex 3.87433 -0.994759 0.25
    endloop
  endfacet
  facet normal -0.951057 0.309017 0
    outer loop
      vertex 3.87433 -0.994759 8.6
      vertex 3.71911 -1.4725 0.25
      vertex 3.71911 -1.4725 8.6
    endloop
  endfacet
  facet normal 0.770513 0.637424 0
    outer loop
      vertex -2.91587 -2.73819 8.6
      vertex -3.23607 -2.35114 0.25
      vertex -3.23607 -2.35114 8.6
    endloop
  endfacet
  facet normal 0.770513 0.637424 0
    outer loop
      vertex -3.23607 -2.35114 0.25
      vertex -2.91587 -2.73819 8.6
      vertex -2.91587 -2.73819 0.25
    endloop
  endfacet
  facet normal 0.982287 0.187382 0
    outer loop
      vertex -3.87433 -0.994759 8.6
      vertex -3.96846 -0.501332 0.25
      vertex -3.96846 -0.501332 8.6
    endloop
  endfacet
  facet normal 0.982287 0.187382 0
    outer loop
      vertex -3.96846 -0.501332 0.25
      vertex -3.87433 -0.994759 8.6
      vertex -3.87433 -0.994759 0.25
    endloop
  endfacet
  facet normal 0.951057 0.309017 0
    outer loop
      vertex -3.71911 -1.4725 8.6
      vertex -3.87433 -0.994759 0.25
      vertex -3.87433 -0.994759 8.6
    endloop
  endfacet
  facet normal 0.951057 0.309017 0
    outer loop
      vertex -3.87433 -0.994759 0.25
      vertex -3.71911 -1.4725 8.6
      vertex -3.71911 -1.4725 0.25
    endloop
  endfacet
  facet normal -0.24869 0.968583 0
    outer loop
      vertex 1.23607 -3.80423 0.25
      vertex 0.749526 -3.92915 8.6
      vertex 1.23607 -3.80423 8.6
    endloop
  endfacet
  facet normal -0.24869 0.968583 0
    outer loop
      vertex 0.749526 -3.92915 8.6
      vertex 1.23607 -3.80423 0.25
      vertex 0.749526 -3.92915 0.25
    endloop
  endfacet
  facet normal -0.125333 0.992115 0
    outer loop
      vertex 0.749526 -3.92915 0.25
      vertex 0.251162 -3.99211 8.6
      vertex 0.749526 -3.92915 8.6
    endloop
  endfacet
  facet normal -0.125333 0.992115 0
    outer loop
      vertex 0.251162 -3.99211 8.6
      vertex 0.749526 -3.92915 0.25
      vertex 0.251162 -3.99211 0.25
    endloop
  endfacet
  facet normal -0.684547 0.728969 0
    outer loop
      vertex 2.91587 -2.73819 0.25
      vertex 2.5497 -3.08205 8.6
      vertex 2.91587 -2.73819 8.6
    endloop
  endfacet
  facet normal -0.684547 0.728969 0
    outer loop
      vertex 2.5497 -3.08205 8.6
      vertex 2.91587 -2.73819 0.25
      vertex 2.5497 -3.08205 0.25
    endloop
  endfacet
  facet normal -0.770513 0.637424 0
    outer loop
      vertex 2.91587 -2.73819 0.25
      vertex 3.23607 -2.35114 8.6
      vertex 3.23607 -2.35114 0.25
    endloop
  endfacet
  facet normal -0.770513 0.637424 0
    outer loop
      vertex 3.23607 -2.35114 8.6
      vertex 2.91587 -2.73819 0.25
      vertex 2.91587 -2.73819 8.6
    endloop
  endfacet
  facet normal -0.587785 0.809018 0
    outer loop
      vertex 2.5497 -3.08205 0.25
      vertex 2.14331 -3.37731 8.6
      vertex 2.5497 -3.08205 8.6
    endloop
  endfacet
  facet normal -0.587785 0.809018 0
    outer loop
      vertex 2.14331 -3.37731 8.6
      vertex 2.5497 -3.08205 0.25
      vertex 2.14331 -3.37731 0.25
    endloop
  endfacet
  facet normal 0.125333 0.992115 -0
    outer loop
      vertex -0.251162 -3.99211 0.25
      vertex -0.749524 -3.92915 8.6
      vertex -0.251162 -3.99211 8.6
    endloop
  endfacet
  facet normal 0.125333 0.992115 0
    outer loop
      vertex -0.749524 -3.92915 8.6
      vertex -0.251162 -3.99211 0.25
      vertex -0.749524 -3.92915 0.25
    endloop
  endfacet
  facet normal 0.368125 0.929776 -0
    outer loop
      vertex -1.23607 -3.80423 0.25
      vertex -1.70312 -3.61931 8.6
      vertex -1.23607 -3.80423 8.6
    endloop
  endfacet
  facet normal 0.368125 0.929776 0
    outer loop
      vertex -1.70312 -3.61931 8.6
      vertex -1.23607 -3.80423 0.25
      vertex -1.70312 -3.61931 0.25
    endloop
  endfacet
  facet normal 0.24869 0.968583 -0
    outer loop
      vertex -0.749524 -3.92915 0.25
      vertex -1.23607 -3.80423 8.6
      vertex -0.749524 -3.92915 8.6
    endloop
  endfacet
  facet normal 0.24869 0.968583 0
    outer loop
      vertex -1.23607 -3.80423 8.6
      vertex -0.749524 -3.92915 0.25
      vertex -1.23607 -3.80423 0.25
    endloop
  endfacet
  facet normal 0.481754 0.876307 -0
    outer loop
      vertex -1.70312 -3.61931 0.25
      vertex -2.14331 -3.37731 8.6
      vertex -1.70312 -3.61931 8.6
    endloop
  endfacet
  facet normal 0.481754 0.876307 0
    outer loop
      vertex -2.14331 -3.37731 8.6
      vertex -1.70312 -3.61931 0.25
      vertex -2.14331 -3.37731 0.25
    endloop
  endfacet
  facet normal 0.587785 0.809017 -0
    outer loop
      vertex -2.14331 -3.37731 0.25
      vertex -2.5497 -3.08205 8.6
      vertex -2.14331 -3.37731 8.6
    endloop
  endfacet
  facet normal 0.587785 0.809017 0
    outer loop
      vertex -2.5497 -3.08205 8.6
      vertex -2.14331 -3.37731 0.25
      vertex -2.5497 -3.08205 0.25
    endloop
  endfacet
  facet normal -1 0 0
    outer loop
      vertex -21.275 15 0
      vertex -21.275 1.74655 4.19012
      vertex -21.275 15 8.6
    endloop
  endfacet
  facet normal -1 0 0
    outer loop
      vertex -21.275 15 0
      vertex -21.275 1.719 3.97208
      vertex -21.275 1.74655 4.19012
    endloop
  endfacet
  facet normal -1 0 0
    outer loop
      vertex -21.275 15 0
      vertex -21.275 1.66435 3.75922
      vertex -21.275 1.719 3.97208
    endloop
  endfacet
  facet normal -1 0 0
    outer loop
      vertex -21.275 15 0
      vertex -21.275 1.58345 3.55489
      vertex -21.275 1.66435 3.75922
    endloop
  endfacet
  facet normal -1 0 0
    outer loop
      vertex -21.275 15 0
      vertex -21.275 1.47757 3.3623
      vertex -21.275 1.58345 3.55489
    endloop
  endfacet
  facet normal -1 0 0
    outer loop
      vertex -21.275 15 0
      vertex -21.275 1.3484 3.18451
      vertex -21.275 1.47757 3.3623
    endloop
  endfacet
  facet normal -1 0 0
    outer loop
      vertex -21.275 15 0
      vertex -21.275 1.19796 3.0243
      vertex -21.275 1.3484 3.18451
    endloop
  endfacet
  facet normal -1 0 0
    outer loop
      vertex -21.275 15 0
      vertex -21.275 1.02862 2.88422
      vertex -21.275 1.19796 3.0243
    endloop
  endfacet
  facet normal -1 0 0
    outer loop
      vertex -21.275 15 0
      vertex -21.275 0.843068 2.76646
      vertex -21.275 1.02862 2.88422
    endloop
  endfacet
  facet normal -1 0 0
    outer loop
      vertex -21.275 15 0
      vertex -21.275 0.644217 2.67289
      vertex -21.275 0.843068 2.76646
    endloop
  endfacet
  facet normal -1 0 0
    outer loop
      vertex -21.275 15 0
      vertex -21.275 0.435206 2.60498
      vertex -21.275 0.644217 2.67289
    endloop
  endfacet
  facet normal -1 0 0
    outer loop
      vertex -21.275 15 0
      vertex -21.275 0.219333 2.5638
      vertex -21.275 0.435206 2.60498
    endloop
  endfacet
  facet normal -1 0 0
    outer loop
      vertex -21.275 15 0
      vertex -21.275 0 2.55
      vertex -21.275 0.219333 2.5638
    endloop
  endfacet
  facet normal -1 0 0
    outer loop
      vertex -21.275 -15 0
      vertex -21.275 0 2.55
      vertex -21.275 15 0
    endloop
  endfacet
  facet normal -1 -0 0
    outer loop
      vertex -21.275 -1.74655 4.19012
      vertex -21.275 -15 0
      vertex -21.275 -1.74655 4.40988
    endloop
  endfacet
  facet normal -1 -0 0
    outer loop
      vertex -21.275 -1.719 3.97208
      vertex -21.275 -15 0
      vertex -21.275 -1.74655 4.19012
    endloop
  endfacet
  facet normal -1 -0 0
    outer loop
      vertex -21.275 -1.66435 3.75922
      vertex -21.275 -15 0
      vertex -21.275 -1.719 3.97208
    endloop
  endfacet
  facet normal -1 -0 0
    outer loop
      vertex -21.275 -1.58345 3.55489
      vertex -21.275 -15 0
      vertex -21.275 -1.66435 3.75922
    endloop
  endfacet
  facet normal -1 -0 0
    outer loop
      vertex -21.275 -1.47757 3.3623
      vertex -21.275 -15 0
      vertex -21.275 -1.58345 3.55489
    endloop
  endfacet
  facet normal -1 -0 0
    outer loop
      vertex -21.275 -1.3484 3.18451
      vertex -21.275 -15 0
      vertex -21.275 -1.47757 3.3623
    endloop
  endfacet
  facet normal -1 -0 0
    outer loop
      vertex -21.275 -1.19796 3.0243
      vertex -21.275 -15 0
      vertex -21.275 -1.3484 3.18451
    endloop
  endfacet
  facet normal -1 -0 0
    outer loop
      vertex -21.275 -1.02862 2.88422
      vertex -21.275 -15 0
      vertex -21.275 -1.19796 3.0243
    endloop
  endfacet
  facet normal -1 -0 0
    outer loop
      vertex -21.275 -0.843068 2.76646
      vertex -21.275 -15 0
      vertex -21.275 -1.02862 2.88422
    endloop
  endfacet
  facet normal -1 -0 0
    outer loop
      vertex -21.275 -0.644217 2.67289
      vertex -21.275 -15 0
      vertex -21.275 -0.843068 2.76646
    endloop
  endfacet
  facet normal -1 -0 0
    outer loop
      vertex -21.275 -0.435206 2.60498
      vertex -21.275 -15 0
      vertex -21.275 -0.644217 2.67289
    endloop
  endfacet
  facet normal -1 -0 0
    outer loop
      vertex -21.275 -0.219333 2.5638
      vertex -21.275 -15 0
      vertex -21.275 -0.435206 2.60498
    endloop
  endfacet
  facet normal -1 -0 0
    outer loop
      vertex -21.275 0 2.55
      vertex -21.275 -15 0
      vertex -21.275 -0.219333 2.5638
    endloop
  endfacet
  facet normal -1 0 0
    outer loop
      vertex -21.275 1.74655 4.40988
      vertex -21.275 15 8.6
      vertex -21.275 1.74655 4.19012
    endloop
  endfacet
  facet normal -1 0 0
    outer loop
      vertex -21.275 1.719 4.62792
      vertex -21.275 15 8.6
      vertex -21.275 1.74655 4.40988
    endloop
  endfacet
  facet normal -1 0 0
    outer loop
      vertex -21.275 1.66435 4.84078
      vertex -21.275 15 8.6
      vertex -21.275 1.719 4.62792
    endloop
  endfacet
  facet normal -1 0 0
    outer loop
      vertex -21.275 1.58345 5.04511
      vertex -21.275 15 8.6
      vertex -21.275 1.66435 4.84078
    endloop
  endfacet
  facet normal -1 0 0
    outer loop
      vertex -21.275 1.47757 5.2377
      vertex -21.275 15 8.6
      vertex -21.275 1.58345 5.04511
    endloop
  endfacet
  facet normal -1 0 0
    outer loop
      vertex -21.275 1.3484 5.41549
      vertex -21.275 15 8.6
      vertex -21.275 1.47757 5.2377
    endloop
  endfacet
  facet normal -1 0 0
    outer loop
      vertex -21.275 1.19796 5.5757
      vertex -21.275 15 8.6
      vertex -21.275 1.3484 5.41549
    endloop
  endfacet
  facet normal -1 0 0
    outer loop
      vertex -21.275 1.02862 5.71578
      vertex -21.275 15 8.6
      vertex -21.275 1.19796 5.5757
    endloop
  endfacet
  facet normal -1 0 0
    outer loop
      vertex -21.275 0.843068 5.83354
      vertex -21.275 15 8.6
      vertex -21.275 1.02862 5.71578
    endloop
  endfacet
  facet normal -1 0 0
    outer loop
      vertex -21.275 0.644217 5.92711
      vertex -21.275 15 8.6
      vertex -21.275 0.843068 5.83354
    endloop
  endfacet
  facet normal -1 0 0
    outer loop
      vertex -21.275 0.435206 5.99502
      vertex -21.275 15 8.6
      vertex -21.275 0.644217 5.92711
    endloop
  endfacet
  facet normal -1 0 0
    outer loop
      vertex -21.275 0.219333 6.0362
      vertex -21.275 15 8.6
      vertex -21.275 0.435206 5.99502
    endloop
  endfacet
  facet normal -1 0 0
    outer loop
      vertex -21.275 0 6.05
      vertex -21.275 15 8.6
      vertex -21.275 0.219333 6.0362
    endloop
  endfacet
  facet normal -1 0 0
    outer loop
      vertex -21.275 -15 8.6
      vertex -21.275 0 6.05
      vertex -21.275 -0.219333 6.0362
    endloop
  endfacet
  facet normal -1 0 0
    outer loop
      vertex -21.275 -15 8.6
      vertex -21.275 -1.74655 4.40988
      vertex -21.275 -15 0
    endloop
  endfacet
  facet normal -1 0 0
    outer loop
      vertex -21.275 -1.74655 4.40988
      vertex -21.275 -15 8.6
      vertex -21.275 -1.719 4.62792
    endloop
  endfacet
  facet normal -1 0 0
    outer loop
      vertex -21.275 -1.719 4.62792
      vertex -21.275 -15 8.6
      vertex -21.275 -1.66435 4.84078
    endloop
  endfacet
  facet normal -1 0 0
    outer loop
      vertex -21.275 -1.66435 4.84078
      vertex -21.275 -15 8.6
      vertex -21.275 -1.58345 5.04511
    endloop
  endfacet
  facet normal -1 0 0
    outer loop
      vertex -21.275 -1.58345 5.04511
      vertex -21.275 -15 8.6
      vertex -21.275 -1.47757 5.2377
    endloop
  endfacet
  facet normal -1 0 0
    outer loop
      vertex -21.275 -1.47757 5.2377
      vertex -21.275 -15 8.6
      vertex -21.275 -1.3484 5.41549
    endloop
  endfacet
  facet normal -1 0 0
    outer loop
      vertex -21.275 -1.3484 5.41549
      vertex -21.275 -15 8.6
      vertex -21.275 -1.19796 5.5757
    endloop
  endfacet
  facet normal -1 0 0
    outer loop
      vertex -21.275 -1.19796 5.5757
      vertex -21.275 -15 8.6
      vertex -21.275 -1.02862 5.71578
    endloop
  endfacet
  facet normal -1 0 0
    outer loop
      vertex -21.275 -1.02862 5.71578
      vertex -21.275 -15 8.6
      vertex -21.275 -0.843068 5.83354
    endloop
  endfacet
  facet normal -1 0 0
    outer loop
      vertex -21.275 0 6.05
      vertex -21.275 -15 8.6
      vertex -21.275 15 8.6
    endloop
  endfacet
  facet normal -1 0 0
    outer loop
      vertex -21.275 -0.435206 5.99502
      vertex -21.275 -15 8.6
      vertex -21.275 -0.219333 6.0362
    endloop
  endfacet
  facet normal -1 0 0
    outer loop
      vertex -21.275 -0.644217 5.92711
      vertex -21.275 -15 8.6
      vertex -21.275 -0.435206 5.99502
    endloop
  endfacet
  facet normal -1 0 0
    outer loop
      vertex -21.275 -0.843068 5.83354
      vertex -21.275 -15 8.6
      vertex -21.275 -0.644217 5.92711
    endloop
  endfacet
  facet normal 1 0 0
    outer loop
      vertex -19.275 13 8.6
      vertex -19.275 1.74655 4.40988
      vertex -19.275 13 0
    endloop
  endfacet
  facet normal 1 0 0
    outer loop
      vertex -19.275 13 8.6
      vertex -19.275 1.719 4.62792
      vertex -19.275 1.74655 4.40988
    endloop
  endfacet
  facet normal 1 0 0
    outer loop
      vertex -19.275 13 8.6
      vertex -19.275 1.66435 4.84078
      vertex -19.275 1.719 4.62792
    endloop
  endfacet
  facet normal 1 0 0
    outer loop
      vertex -19.275 13 8.6
      vertex -19.275 1.58345 5.04511
      vertex -19.275 1.66435 4.84078
    endloop
  endfacet
  facet normal 1 0 0
    outer loop
      vertex -19.275 13 8.6
      vertex -19.275 1.47757 5.2377
      vertex -19.275 1.58345 5.04511
    endloop
  endfacet
  facet normal 1 0 0
    outer loop
      vertex -19.275 13 8.6
      vertex -19.275 1.3484 5.41549
      vertex -19.275 1.47757 5.2377
    endloop
  endfacet
  facet normal 1 0 0
    outer loop
      vertex -19.275 13 8.6
      vertex -19.275 1.19796 5.5757
      vertex -19.275 1.3484 5.41549
    endloop
  endfacet
  facet normal 1 0 0
    outer loop
      vertex -19.275 13 8.6
      vertex -19.275 1.02862 5.71578
      vertex -19.275 1.19796 5.5757
    endloop
  endfacet
  facet normal 1 0 0
    outer loop
      vertex -19.275 13 8.6
      vertex -19.275 0.843068 5.83354
      vertex -19.275 1.02862 5.71578
    endloop
  endfacet
  facet normal 1 0 0
    outer loop
      vertex -19.275 13 8.6
      vertex -19.275 0.644217 5.92711
      vertex -19.275 0.843068 5.83354
    endloop
  endfacet
  facet normal 1 0 0
    outer loop
      vertex -19.275 13 8.6
      vertex -19.275 0.435206 5.99502
      vertex -19.275 0.644217 5.92711
    endloop
  endfacet
  facet normal 1 0 0
    outer loop
      vertex -19.275 13 8.6
      vertex -19.275 0.219333 6.0362
      vertex -19.275 0.435206 5.99502
    endloop
  endfacet
  facet normal 1 0 0
    outer loop
      vertex -19.275 13 8.6
      vertex -19.275 0 6.05
      vertex -19.275 0.219333 6.0362
    endloop
  endfacet
  facet normal 1 -0 0
    outer loop
      vertex -19.275 -13 8.6
      vertex -19.275 0 6.05
      vertex -19.275 13 8.6
    endloop
  endfacet
  facet normal 1 0 0
    outer loop
      vertex -19.275 0 6.05
      vertex -19.275 -13 8.6
      vertex -19.275 -0.219333 6.0362
    endloop
  endfacet
  facet normal 1 0 0
    outer loop
      vertex -19.275 -1.74655 4.40988
      vertex -19.275 -13 8.6
      vertex -19.275 -1.74655 4.19012
    endloop
  endfacet
  facet normal 1 0 0
    outer loop
      vertex -19.275 -1.719 4.62792
      vertex -19.275 -13 8.6
      vertex -19.275 -1.74655 4.40988
    endloop
  endfacet
  facet normal 1 0 0
    outer loop
      vertex -19.275 -1.66435 4.84078
      vertex -19.275 -13 8.6
      vertex -19.275 -1.719 4.62792
    endloop
  endfacet
  facet normal 1 0 0
    outer loop
      vertex -19.275 -1.58345 5.04511
      vertex -19.275 -13 8.6
      vertex -19.275 -1.66435 4.84078
    endloop
  endfacet
  facet normal 1 0 0
    outer loop
      vertex -19.275 -1.47757 5.2377
      vertex -19.275 -13 8.6
      vertex -19.275 -1.58345 5.04511
    endloop
  endfacet
  facet normal 1 0 0
    outer loop
      vertex -19.275 -1.3484 5.41549
      vertex -19.275 -13 8.6
      vertex -19.275 -1.47757 5.2377
    endloop
  endfacet
  facet normal 1 0 0
    outer loop
      vertex -19.275 -1.19796 5.5757
      vertex -19.275 -13 8.6
      vertex -19.275 -1.3484 5.41549
    endloop
  endfacet
  facet normal 1 0 0
    outer loop
      vertex -19.275 -1.02862 5.71578
      vertex -19.275 -13 8.6
      vertex -19.275 -1.19796 5.5757
    endloop
  endfacet
  facet normal 1 0 0
    outer loop
      vertex -19.275 -0.843068 5.83354
      vertex -19.275 -13 8.6
      vertex -19.275 -1.02862 5.71578
    endloop
  endfacet
  facet normal 1 0 0
    outer loop
      vertex -19.275 -0.644217 5.92711
      vertex -19.275 -13 8.6
      vertex -19.275 -0.843068 5.83354
    endloop
  endfacet
  facet normal 1 0 0
    outer loop
      vertex -19.275 -0.435206 5.99502
      vertex -19.275 -13 8.6
      vertex -19.275 -0.644217 5.92711
    endloop
  endfacet
  facet normal 1 0 0
    outer loop
      vertex -19.275 -0.219333 6.0362
      vertex -19.275 -13 8.6
      vertex -19.275 -0.435206 5.99502
    endloop
  endfacet
  facet normal 1 -0 0
    outer loop
      vertex -19.275 1.74655 4.19012
      vertex -19.275 13 0
      vertex -19.275 1.74655 4.40988
    endloop
  endfacet
  facet normal 1 -0 0
    outer loop
      vertex -19.275 1.719 3.97208
      vertex -19.275 13 0
      vertex -19.275 1.74655 4.19012
    endloop
  endfacet
  facet normal 1 -0 0
    outer loop
      vertex -19.275 1.66435 3.75922
      vertex -19.275 13 0
      vertex -19.275 1.719 3.97208
    endloop
  endfacet
  facet normal 1 -0 0
    outer loop
      vertex -19.275 1.58345 3.55489
      vertex -19.275 13 0
      vertex -19.275 1.66435 3.75922
    endloop
  endfacet
  facet normal 1 -0 0
    outer loop
      vertex -19.275 1.47757 3.3623
      vertex -19.275 13 0
      vertex -19.275 1.58345 3.55489
    endloop
  endfacet
  facet normal 1 -0 0
    outer loop
      vertex -19.275 1.3484 3.18451
      vertex -19.275 13 0
      vertex -19.275 1.47757 3.3623
    endloop
  endfacet
  facet normal 1 -0 0
    outer loop
      vertex -19.275 1.19796 3.0243
      vertex -19.275 13 0
      vertex -19.275 1.3484 3.18451
    endloop
  endfacet
  facet normal 1 -0 0
    outer loop
      vertex -19.275 1.02862 2.88422
      vertex -19.275 13 0
      vertex -19.275 1.19796 3.0243
    endloop
  endfacet
  facet normal 1 -0 0
    outer loop
      vertex -19.275 0.843068 2.76646
      vertex -19.275 13 0
      vertex -19.275 1.02862 2.88422
    endloop
  endfacet
  facet normal 1 -0 0
    outer loop
      vertex -19.275 0.644217 2.67289
      vertex -19.275 13 0
      vertex -19.275 0.843068 2.76646
    endloop
  endfacet
  facet normal 1 -0 0
    outer loop
      vertex -19.275 0.435206 2.60498
      vertex -19.275 13 0
      vertex -19.275 0.644217 2.67289
    endloop
  endfacet
  facet normal 1 -0 0
    outer loop
      vertex -19.275 0.219333 2.5638
      vertex -19.275 13 0
      vertex -19.275 0.435206 2.60498
    endloop
  endfacet
  facet normal 1 -0 0
    outer loop
      vertex -19.275 0 2.55
      vertex -19.275 13 0
      vertex -19.275 0.219333 2.5638
    endloop
  endfacet
  facet normal 1 0 0
    outer loop
      vertex -19.275 -13 0
      vertex -19.275 0 2.55
      vertex -19.275 -0.219333 2.5638
    endloop
  endfacet
  facet normal 1 0 0
    outer loop
      vertex -19.275 -13 0
      vertex -19.275 -0.219333 2.5638
      vertex -19.275 -0.435206 2.60498
    endloop
  endfacet
  facet normal 1 0 0
    outer loop
      vertex -19.275 -13 0
      vertex -19.275 -1.74655 4.19012
      vertex -19.275 -13 8.6
    endloop
  endfacet
  facet normal 1 0 0
    outer loop
      vertex -19.275 -1.74655 4.19012
      vertex -19.275 -13 0
      vertex -19.275 -1.719 3.97208
    endloop
  endfacet
  facet normal 1 0 0
    outer loop
      vertex -19.275 -1.719 3.97208
      vertex -19.275 -13 0
      vertex -19.275 -1.66435 3.75922
    endloop
  endfacet
  facet normal 1 0 0
    outer loop
      vertex -19.275 -1.66435 3.75922
      vertex -19.275 -13 0
      vertex -19.275 -1.58345 3.55489
    endloop
  endfacet
  facet normal 1 0 0
    outer loop
      vertex -19.275 -1.58345 3.55489
      vertex -19.275 -13 0
      vertex -19.275 -1.47757 3.3623
    endloop
  endfacet
  facet normal 1 0 0
    outer loop
      vertex -19.275 -1.47757 3.3623
      vertex -19.275 -13 0
      vertex -19.275 -1.3484 3.18451
    endloop
  endfacet
  facet normal 1 0 0
    outer loop
      vertex -19.275 -1.3484 3.18451
      vertex -19.275 -13 0
      vertex -19.275 -1.19796 3.0243
    endloop
  endfacet
  facet normal 1 0 0
    outer loop
      vertex -19.275 -1.19796 3.0243
      vertex -19.275 -13 0
      vertex -19.275 -1.02862 2.88422
    endloop
  endfacet
  facet normal 1 0 0
    outer loop
      vertex -19.275 0 2.55
      vertex -19.275 -13 0
      vertex -19.275 13 0
    endloop
  endfacet
  facet normal 1 0 0
    outer loop
      vertex -19.275 -0.644217 2.67289
      vertex -19.275 -13 0
      vertex -19.275 -0.435206 2.60498
    endloop
  endfacet
  facet normal 1 0 0
    outer loop
      vertex -19.275 -0.843068 2.76646
      vertex -19.275 -13 0
      vertex -19.275 -0.644217 2.67289
    endloop
  endfacet
  facet normal 1 0 0
    outer loop
      vertex -19.275 -1.02862 2.88422
      vertex -19.275 -13 0
      vertex -19.275 -0.843068 2.76646
    endloop
  endfacet
  facet normal -1 0 0
    outer loop
      vertex -13.025 -13 0.25
      vertex -13.025 13 8.6
      vertex -13.025 13 0.25
    endloop
  endfacet
  facet normal -1 -0 0
    outer loop
      vertex -13.025 13 8.6
      vertex -13.025 -13 0.25
      vertex -13.025 -13 8.6
    endloop
  endfacet
  facet normal 0 1 -0
    outer loop
      vertex -13.025 -13 0.25
      vertex -19.275 -13 8.6
      vertex -13.025 -13 8.6
    endloop
  endfacet
  facet normal 0 1 0
    outer loop
      vertex -19.275 -13 8.6
      vertex -13.025 -13 0.25
      vertex -19.275 -13 0.25
    endloop
  endfacet
  facet normal 0 0 0
    outer loop
      vertex -19.275 -13 0.25
      vertex -19.275 -13 0
      vertex -19.275 -13 8.6
    endloop
  endfacet
  facet normal 0 -1 0
    outer loop
      vertex -19.275 13 0.25
      vertex -13.025 13 8.6
      vertex -19.275 13 8.6
    endloop
  endfacet
  facet normal 0 -1 -0
    outer loop
      vertex -13.025 13 8.6
      vertex -19.275 13 0.25
      vertex -13.025 13 0.25
    endloop
  endfacet
  facet normal 0 0 0
    outer loop
      vertex -19.275 13 8.6
      vertex -19.275 13 0
      vertex -19.275 13 0.25
    endloop
  endfacet
  facet normal 0 -0.0627924 0.998027
    outer loop
      vertex -21.275 0.219333 2.5638
      vertex -19.275 0 2.55
      vertex -19.275 0.219333 2.5638
    endloop
  endfacet
  facet normal 0 -0.0627924 0.998027
    outer loop
      vertex -19.275 0 2.55
      vertex -21.275 0.219333 2.5638
      vertex -21.275 0 2.55
    endloop
  endfacet
  facet normal 0 0.0627881 -0.998027
    outer loop
      vertex -21.275 -0.219333 6.0362
      vertex -19.275 0 6.05
      vertex -19.275 -0.219333 6.0362
    endloop
  endfacet
  facet normal 0 0.0627881 -0.998027
    outer loop
      vertex -19.275 0 6.05
      vertex -21.275 -0.219333 6.0362
      vertex -21.275 0 6.05
    endloop
  endfacet
  facet normal 0 1 -0
    outer loop
      vertex -19.275 -1.74655 4.19012
      vertex -21.275 -1.74655 4.40988
      vertex -19.275 -1.74655 4.40988
    endloop
  endfacet
  facet normal 0 1 0
    outer loop
      vertex -21.275 -1.74655 4.40988
      vertex -19.275 -1.74655 4.19012
      vertex -21.275 -1.74655 4.19012
    endloop
  endfacet
  facet normal 0 0.728972 -0.684544
    outer loop
      vertex -19.275 -1.3484 5.41549
      vertex -21.275 -1.19796 5.5757
      vertex -19.275 -1.19796 5.5757
    endloop
  endfacet
  facet normal 0 0.728972 -0.684544
    outer loop
      vertex -21.275 -1.19796 5.5757
      vertex -19.275 -1.3484 5.41549
      vertex -21.275 -1.3484 5.41549
    endloop
  endfacet
  facet normal 0 -0.728972 -0.684544
    outer loop
      vertex -21.275 1.3484 5.41549
      vertex -19.275 1.19796 5.5757
      vertex -21.275 1.19796 5.5757
    endloop
  endfacet
  facet normal 0 -0.728972 -0.684544
    outer loop
      vertex -19.275 1.19796 5.5757
      vertex -21.275 1.3484 5.41549
      vertex -19.275 1.3484 5.41549
    endloop
  endfacet
  facet normal 0 -0.929776 -0.368126
    outer loop
      vertex -21.275 1.66435 4.84078
      vertex -19.275 1.58345 5.04511
      vertex -21.275 1.58345 5.04511
    endloop
  endfacet
  facet normal 0 -0.929776 -0.368126
    outer loop
      vertex -19.275 1.58345 5.04511
      vertex -21.275 1.66435 4.84078
      vertex -19.275 1.66435 4.84078
    endloop
  endfacet
  facet normal 0 0.425782 -0.904826
    outer loop
      vertex -21.275 -0.843068 5.83354
      vertex -19.275 -0.644217 5.92711
      vertex -19.275 -0.843068 5.83354
    endloop
  endfacet
  facet normal 0 0.425782 -0.904826
    outer loop
      vertex -19.275 -0.644217 5.92711
      vertex -21.275 -0.843068 5.83354
      vertex -21.275 -0.644217 5.92711
    endloop
  endfacet
  facet normal 0 -0.187379 0.982288
    outer loop
      vertex -21.275 0.435206 2.60498
      vertex -19.275 0.219333 2.5638
      vertex -19.275 0.435206 2.60498
    endloop
  endfacet
  facet normal 0 -0.187379 0.982288
    outer loop
      vertex -19.275 0.219333 2.5638
      vertex -21.275 0.435206 2.60498
      vertex -21.275 0.219333 2.5638
    endloop
  endfacet
  facet normal 0 -0.929776 0.368126
    outer loop
      vertex -21.275 1.58345 3.55489
      vertex -19.275 1.66435 3.75922
      vertex -21.275 1.66435 3.75922
    endloop
  endfacet
  facet normal 0 -0.929776 0.368126
    outer loop
      vertex -19.275 1.66435 3.75922
      vertex -21.275 1.58345 3.55489
      vertex -19.275 1.58345 3.55489
    endloop
  endfacet
  facet normal 0 -0.809017 0.587786
    outer loop
      vertex -21.275 1.3484 3.18451
      vertex -19.275 1.47757 3.3623
      vertex -21.275 1.47757 3.3623
    endloop
  endfacet
  facet normal 0 -0.809017 0.587786
    outer loop
      vertex -19.275 1.47757 3.3623
      vertex -21.275 1.3484 3.18451
      vertex -19.275 1.3484 3.18451
    endloop
  endfacet
  facet normal 0 -0.425782 -0.904826
    outer loop
      vertex -21.275 0.644217 5.92711
      vertex -19.275 0.843068 5.83354
      vertex -19.275 0.644217 5.92711
    endloop
  endfacet
  facet normal -0 -0.425782 -0.904826
    outer loop
      vertex -19.275 0.843068 5.83354
      vertex -21.275 0.644217 5.92711
      vertex -21.275 0.843068 5.83354
    endloop
  endfacet
  facet normal 0 -0.637422 -0.770514
    outer loop
      vertex -21.275 1.02862 5.71578
      vertex -19.275 1.19796 5.5757
      vertex -19.275 1.02862 5.71578
    endloop
  endfacet
  facet normal -0 -0.637422 -0.770514
    outer loop
      vertex -19.275 1.19796 5.5757
      vertex -21.275 1.02862 5.71578
      vertex -21.275 1.19796 5.5757
    endloop
  endfacet
  facet normal 0 -0.876307 -0.481752
    outer loop
      vertex -21.275 1.58345 5.04511
      vertex -19.275 1.47757 5.2377
      vertex -21.275 1.47757 5.2377
    endloop
  endfacet
  facet normal 0 -0.876307 -0.481752
    outer loop
      vertex -19.275 1.47757 5.2377
      vertex -21.275 1.58345 5.04511
      vertex -19.275 1.58345 5.04511
    endloop
  endfacet
  facet normal 0 -0.968584 -0.248688
    outer loop
      vertex -21.275 1.719 4.62792
      vertex -19.275 1.66435 4.84078
      vertex -21.275 1.66435 4.84078
    endloop
  endfacet
  facet normal 0 -0.968584 -0.248688
    outer loop
      vertex -19.275 1.66435 4.84078
      vertex -21.275 1.719 4.62792
      vertex -19.275 1.719 4.62792
    endloop
  endfacet
  facet normal 0 0.876307 0.481752
    outer loop
      vertex -19.275 -1.47757 3.3623
      vertex -21.275 -1.58345 3.55489
      vertex -19.275 -1.58345 3.55489
    endloop
  endfacet
  facet normal 0 0.876307 0.481752
    outer loop
      vertex -21.275 -1.58345 3.55489
      vertex -19.275 -1.47757 3.3623
      vertex -21.275 -1.47757 3.3623
    endloop
  endfacet
  facet normal -0 0.187379 0.982288
    outer loop
      vertex -21.275 -0.219333 2.5638
      vertex -19.275 -0.435206 2.60498
      vertex -19.275 -0.219333 2.5638
    endloop
  endfacet
  facet normal 0 0.187379 0.982288
    outer loop
      vertex -19.275 -0.435206 2.60498
      vertex -21.275 -0.219333 2.5638
      vertex -21.275 -0.435206 2.60498
    endloop
  endfacet
  facet normal 0 0.929776 -0.368126
    outer loop
      vertex -19.275 -1.66435 4.84078
      vertex -21.275 -1.58345 5.04511
      vertex -19.275 -1.58345 5.04511
    endloop
  endfacet
  facet normal 0 0.929776 -0.368126
    outer loop
      vertex -21.275 -1.58345 5.04511
      vertex -19.275 -1.66435 4.84078
      vertex -21.275 -1.66435 4.84078
    endloop
  endfacet
  facet normal 0 0.809015 -0.587788
    outer loop
      vertex -19.275 -1.47757 5.2377
      vertex -21.275 -1.3484 5.41549
      vertex -19.275 -1.3484 5.41549
    endloop
  endfacet
  facet normal 0 0.809015 -0.587788
    outer loop
      vertex -21.275 -1.3484 5.41549
      vertex -19.275 -1.47757 5.2377
      vertex -21.275 -1.47757 5.2377
    endloop
  endfacet
  facet normal 0 0.309014 -0.951057
    outer loop
      vertex -21.275 -0.644217 5.92711
      vertex -19.275 -0.435206 5.99502
      vertex -19.275 -0.644217 5.92711
    endloop
  endfacet
  facet normal 0 0.309014 -0.951057
    outer loop
      vertex -19.275 -0.435206 5.99502
      vertex -21.275 -0.644217 5.92711
      vertex -21.275 -0.435206 5.99502
    endloop
  endfacet
  facet normal 0 -0.309018 0.951056
    outer loop
      vertex -21.275 0.644217 2.67289
      vertex -19.275 0.435206 2.60498
      vertex -19.275 0.644217 2.67289
    endloop
  endfacet
  facet normal 0 -0.309018 0.951056
    outer loop
      vertex -19.275 0.435206 2.60498
      vertex -21.275 0.644217 2.67289
      vertex -21.275 0.435206 2.60498
    endloop
  endfacet
  facet normal 0 -0.72897 0.684546
    outer loop
      vertex -21.275 1.19796 3.0243
      vertex -19.275 1.3484 3.18451
      vertex -21.275 1.3484 3.18451
    endloop
  endfacet
  facet normal 0 -0.72897 0.684546
    outer loop
      vertex -19.275 1.3484 3.18451
      vertex -21.275 1.19796 3.0243
      vertex -19.275 1.19796 3.0243
    endloop
  endfacet
  facet normal 0 -0.535826 0.844328
    outer loop
      vertex -21.275 1.02862 2.88422
      vertex -19.275 0.843068 2.76646
      vertex -19.275 1.02862 2.88422
    endloop
  endfacet
  facet normal 0 -0.535826 0.844328
    outer loop
      vertex -19.275 0.843068 2.76646
      vertex -21.275 1.02862 2.88422
      vertex -21.275 0.843068 2.76646
    endloop
  endfacet
  facet normal 0 -0.968584 0.248688
    outer loop
      vertex -21.275 1.66435 3.75922
      vertex -19.275 1.719 3.97208
      vertex -21.275 1.719 3.97208
    endloop
  endfacet
  facet normal 0 -0.968584 0.248688
    outer loop
      vertex -19.275 1.719 3.97208
      vertex -21.275 1.66435 3.75922
      vertex -19.275 1.66435 3.75922
    endloop
  endfacet
  facet normal 0 -1 0
    outer loop
      vertex -21.275 1.74655 4.19012
      vertex -19.275 1.74655 4.40988
      vertex -21.275 1.74655 4.40988
    endloop
  endfacet
  facet normal 0 -1 -0
    outer loop
      vertex -19.275 1.74655 4.40988
      vertex -21.275 1.74655 4.19012
      vertex -19.275 1.74655 4.19012
    endloop
  endfacet
  facet normal 0 -0.876307 0.481752
    outer loop
      vertex -21.275 1.47757 3.3623
      vertex -19.275 1.58345 3.55489
      vertex -21.275 1.58345 3.55489
    endloop
  endfacet
  facet normal 0 -0.876307 0.481752
    outer loop
      vertex -19.275 1.58345 3.55489
      vertex -21.275 1.47757 3.3623
      vertex -19.275 1.47757 3.3623
    endloop
  endfacet
  facet normal 0 -0.187383 -0.982287
    outer loop
      vertex -21.275 0.219333 6.0362
      vertex -19.275 0.435206 5.99502
      vertex -19.275 0.219333 6.0362
    endloop
  endfacet
  facet normal -0 -0.187383 -0.982287
    outer loop
      vertex -19.275 0.435206 5.99502
      vertex -21.275 0.219333 6.0362
      vertex -21.275 0.435206 5.99502
    endloop
  endfacet
  facet normal 0 -0.535826 -0.844328
    outer loop
      vertex -21.275 0.843068 5.83354
      vertex -19.275 1.02862 5.71578
      vertex -19.275 0.843068 5.83354
    endloop
  endfacet
  facet normal -0 -0.535826 -0.844328
    outer loop
      vertex -19.275 1.02862 5.71578
      vertex -21.275 0.843068 5.83354
      vertex -21.275 1.02862 5.71578
    endloop
  endfacet
  facet normal 0 -0.309014 -0.951057
    outer loop
      vertex -21.275 0.435206 5.99502
      vertex -19.275 0.644217 5.92711
      vertex -19.275 0.435206 5.99502
    endloop
  endfacet
  facet normal -0 -0.309014 -0.951057
    outer loop
      vertex -19.275 0.644217 5.92711
      vertex -21.275 0.435206 5.99502
      vertex -21.275 0.644217 5.92711
    endloop
  endfacet
  facet normal 0 -0.0627881 -0.998027
    outer loop
      vertex -21.275 0 6.05
      vertex -19.275 0.219333 6.0362
      vertex -19.275 0 6.05
    endloop
  endfacet
  facet normal -0 -0.0627881 -0.998027
    outer loop
      vertex -19.275 0.219333 6.0362
      vertex -21.275 0 6.05
      vertex -21.275 0.219333 6.0362
    endloop
  endfacet
  facet normal 0 -0.809015 -0.587788
    outer loop
      vertex -21.275 1.47757 5.2377
      vertex -19.275 1.3484 5.41549
      vertex -21.275 1.3484 5.41549
    endloop
  endfacet
  facet normal 0 -0.809015 -0.587788
    outer loop
      vertex -19.275 1.3484 5.41549
      vertex -21.275 1.47757 5.2377
      vertex -19.275 1.47757 5.2377
    endloop
  endfacet
  facet normal 0 -0.992114 -0.125337
    outer loop
      vertex -21.275 1.74655 4.40988
      vertex -19.275 1.719 4.62792
      vertex -21.275 1.719 4.62792
    endloop
  endfacet
  facet normal 0 -0.992114 -0.125337
    outer loop
      vertex -19.275 1.719 4.62792
      vertex -21.275 1.74655 4.40988
      vertex -19.275 1.74655 4.40988
    endloop
  endfacet
  facet normal 0 0.992114 0.125337
    outer loop
      vertex -19.275 -1.719 3.97208
      vertex -21.275 -1.74655 4.19012
      vertex -19.275 -1.74655 4.19012
    endloop
  endfacet
  facet normal 0 0.992114 0.125337
    outer loop
      vertex -21.275 -1.74655 4.19012
      vertex -19.275 -1.719 3.97208
      vertex -21.275 -1.719 3.97208
    endloop
  endfacet
  facet normal 0 0.929776 0.368126
    outer loop
      vertex -19.275 -1.58345 3.55489
      vertex -21.275 -1.66435 3.75922
      vertex -19.275 -1.66435 3.75922
    endloop
  endfacet
  facet normal 0 0.929776 0.368126
    outer loop
      vertex -21.275 -1.66435 3.75922
      vertex -19.275 -1.58345 3.55489
      vertex -21.275 -1.58345 3.55489
    endloop
  endfacet
  facet normal 0 0.809017 0.587786
    outer loop
      vertex -19.275 -1.3484 3.18451
      vertex -21.275 -1.47757 3.3623
      vertex -19.275 -1.47757 3.3623
    endloop
  endfacet
  facet normal 0 0.809017 0.587786
    outer loop
      vertex -21.275 -1.47757 3.3623
      vertex -19.275 -1.3484 3.18451
      vertex -21.275 -1.3484 3.18451
    endloop
  endfacet
  facet normal -0 0.637422 0.770514
    outer loop
      vertex -21.275 -1.02862 2.88422
      vertex -19.275 -1.19796 3.0243
      vertex -19.275 -1.02862 2.88422
    endloop
  endfacet
  facet normal 0 0.637422 0.770514
    outer loop
      vertex -19.275 -1.19796 3.0243
      vertex -21.275 -1.02862 2.88422
      vertex -21.275 -1.19796 3.0243
    endloop
  endfacet
  facet normal -0 0.425782 0.904826
    outer loop
      vertex -21.275 -0.644217 2.67289
      vertex -19.275 -0.843068 2.76646
      vertex -19.275 -0.644217 2.67289
    endloop
  endfacet
  facet normal 0 0.425782 0.904826
    outer loop
      vertex -19.275 -0.843068 2.76646
      vertex -21.275 -0.644217 2.67289
      vertex -21.275 -0.843068 2.76646
    endloop
  endfacet
  facet normal 0 0.876307 -0.481752
    outer loop
      vertex -19.275 -1.58345 5.04511
      vertex -21.275 -1.47757 5.2377
      vertex -19.275 -1.47757 5.2377
    endloop
  endfacet
  facet normal 0 0.876307 -0.481752
    outer loop
      vertex -21.275 -1.47757 5.2377
      vertex -19.275 -1.58345 5.04511
      vertex -21.275 -1.58345 5.04511
    endloop
  endfacet
  facet normal 0 0.968584 -0.248688
    outer loop
      vertex -19.275 -1.719 4.62792
      vertex -21.275 -1.66435 4.84078
      vertex -19.275 -1.66435 4.84078
    endloop
  endfacet
  facet normal 0 0.968584 -0.248688
    outer loop
      vertex -21.275 -1.66435 4.84078
      vertex -19.275 -1.719 4.62792
      vertex -21.275 -1.719 4.62792
    endloop
  endfacet
  facet normal 0 0.992114 -0.125337
    outer loop
      vertex -19.275 -1.74655 4.40988
      vertex -21.275 -1.719 4.62792
      vertex -19.275 -1.719 4.62792
    endloop
  endfacet
  facet normal 0 0.992114 -0.125337
    outer loop
      vertex -21.275 -1.719 4.62792
      vertex -19.275 -1.74655 4.40988
      vertex -21.275 -1.74655 4.40988
    endloop
  endfacet
  facet normal 0 0.535826 -0.844328
    outer loop
      vertex -21.275 -1.02862 5.71578
      vertex -19.275 -0.843068 5.83354
      vertex -19.275 -1.02862 5.71578
    endloop
  endfacet
  facet normal 0 0.535826 -0.844328
    outer loop
      vertex -19.275 -0.843068 5.83354
      vertex -21.275 -1.02862 5.71578
      vertex -21.275 -0.843068 5.83354
    endloop
  endfacet
  facet normal 0 0.637422 -0.770514
    outer loop
      vertex -21.275 -1.19796 5.5757
      vertex -19.275 -1.02862 5.71578
      vertex -19.275 -1.19796 5.5757
    endloop
  endfacet
  facet normal 0 0.637422 -0.770514
    outer loop
      vertex -19.275 -1.02862 5.71578
      vertex -21.275 -1.19796 5.5757
      vertex -21.275 -1.02862 5.71578
    endloop
  endfacet
  facet normal 0 0.187383 -0.982287
    outer loop
      vertex -21.275 -0.435206 5.99502
      vertex -19.275 -0.219333 6.0362
      vertex -19.275 -0.435206 5.99502
    endloop
  endfacet
  facet normal 0 0.187383 -0.982287
    outer loop
      vertex -19.275 -0.219333 6.0362
      vertex -21.275 -0.435206 5.99502
      vertex -21.275 -0.219333 6.0362
    endloop
  endfacet
  facet normal 0 -0.425782 0.904826
    outer loop
      vertex -21.275 0.843068 2.76646
      vertex -19.275 0.644217 2.67289
      vertex -19.275 0.843068 2.76646
    endloop
  endfacet
  facet normal 0 -0.425782 0.904826
    outer loop
      vertex -19.275 0.644217 2.67289
      vertex -21.275 0.843068 2.76646
      vertex -21.275 0.644217 2.67289
    endloop
  endfacet
  facet normal 0 -0.637422 0.770514
    outer loop
      vertex -21.275 1.19796 3.0243
      vertex -19.275 1.02862 2.88422
      vertex -19.275 1.19796 3.0243
    endloop
  endfacet
  facet normal 0 -0.637422 0.770514
    outer loop
      vertex -19.275 1.02862 2.88422
      vertex -21.275 1.19796 3.0243
      vertex -21.275 1.02862 2.88422
    endloop
  endfacet
  facet normal 0 -0.992114 0.125337
    outer loop
      vertex -21.275 1.719 3.97208
      vertex -19.275 1.74655 4.19012
      vertex -21.275 1.74655 4.19012
    endloop
  endfacet
  facet normal 0 -0.992114 0.125337
    outer loop
      vertex -19.275 1.74655 4.19012
      vertex -21.275 1.719 3.97208
      vertex -19.275 1.719 3.97208
    endloop
  endfacet
  facet normal -0 0.0627924 0.998027
    outer loop
      vertex -21.275 0 2.55
      vertex -19.275 -0.219333 2.5638
      vertex -19.275 0 2.55
    endloop
  endfacet
  facet normal 0 0.0627924 0.998027
    outer loop
      vertex -19.275 -0.219333 2.5638
      vertex -21.275 0 2.55
      vertex -21.275 -0.219333 2.5638
    endloop
  endfacet
  facet normal 0 0.968584 0.248688
    outer loop
      vertex -19.275 -1.66435 3.75922
      vertex -21.275 -1.719 3.97208
      vertex -19.275 -1.719 3.97208
    endloop
  endfacet
  facet normal 0 0.968584 0.248688
    outer loop
      vertex -21.275 -1.719 3.97208
      vertex -19.275 -1.66435 3.75922
      vertex -21.275 -1.66435 3.75922
    endloop
  endfacet
  facet normal 0 0.72897 0.684546
    outer loop
      vertex -19.275 -1.19796 3.0243
      vertex -21.275 -1.3484 3.18451
      vertex -19.275 -1.3484 3.18451
    endloop
  endfacet
  facet normal 0 0.72897 0.684546
    outer loop
      vertex -21.275 -1.3484 3.18451
      vertex -19.275 -1.19796 3.0243
      vertex -21.275 -1.19796 3.0243
    endloop
  endfacet
  facet normal -0 0.535826 0.844328
    outer loop
      vertex -21.275 -0.843068 2.76646
      vertex -19.275 -1.02862 2.88422
      vertex -19.275 -0.843068 2.76646
    endloop
  endfacet
  facet normal 0 0.535826 0.844328
    outer loop
      vertex -19.275 -1.02862 2.88422
      vertex -21.275 -0.843068 2.76646
      vertex -21.275 -1.02862 2.88422
    endloop
  endfacet
  facet normal -0 0.309018 0.951056
    outer loop
      vertex -21.275 -0.435206 2.60498
      vertex -19.275 -0.644217 2.67289
      vertex -19.275 -0.435206 2.60498
    endloop
  endfacet
  facet normal 0 0.309018 0.951056
    outer loop
      vertex -19.275 -0.644217 2.67289
      vertex -21.275 -0.435206 2.60498
      vertex -21.275 -0.644217 2.67289
    endloop
  endfacet
  facet normal -1 0 0
    outer loop
      vertex -19.275 -13 0
      vertex -19.275 13 0.25
      vertex -19.275 13 0
    endloop
  endfacet
  facet normal -1 -0 0
    outer loop
      vertex -19.275 13 0.25
      vertex -19.275 -13 0
      vertex -19.275 -13 0.25
    endloop
  endfacet
  facet normal -0 0 1
    outer loop
      vertex -19.275 13 0.25
      vertex -13.025 -13 0.25
      vertex -13.025 13 0.25
    endloop
  endfacet
  facet normal 0 0 1
    outer loop
      vertex -13.025 -13 0.25
      vertex -19.275 13 0.25
      vertex -19.275 -13 0.25
    endloop
  endfacet
  facet normal 0 0 1
    outer loop
      vertex 3.96846 0.501332 0.25
      vertex 3.96846 -0.501332 0.25
      vertex 4 0 0.25
    endloop
  endfacet
  facet normal 0 0 1
    outer loop
      vertex 3.87433 0.994759 0.25
      vertex 3.96846 -0.501332 0.25
      vertex 3.96846 0.501332 0.25
    endloop
  endfacet
  facet normal 0 0 1
    outer loop
      vertex 3.87433 0.994759 0.25
      vertex 3.87433 -0.994759 0.25
      vertex 3.96846 -0.501332 0.25
    endloop
  endfacet
  facet normal 0 0 1
    outer loop
      vertex 3.71911 1.4725 0.25
      vertex 3.87433 -0.994759 0.25
      vertex 3.87433 0.994759 0.25
    endloop
  endfacet
  facet normal 0 0 1
    outer loop
      vertex 3.71911 1.4725 0.25
      vertex 3.71911 -1.4725 0.25
      vertex 3.87433 -0.994759 0.25
    endloop
  endfacet
  facet normal 0 0 1
    outer loop
      vertex 3.50523 1.92701 0.25
      vertex 3.71911 -1.4725 0.25
      vertex 3.71911 1.4725 0.25
    endloop
  endfacet
  facet normal 0 0 1
    outer loop
      vertex 3.50523 1.92701 0.25
      vertex 3.50523 -1.92701 0.25
      vertex 3.71911 -1.4725 0.25
    endloop
  endfacet
  facet normal 0 0 1
    outer loop
      vertex 3.23607 2.35114 0.25
      vertex 3.50523 -1.92701 0.25
      vertex 3.50523 1.92701 0.25
    endloop
  endfacet
  facet normal 0 0 1
    outer loop
      vertex 3.23607 2.35114 0.25
      vertex 3.23607 -2.35114 0.25
      vertex 3.50523 -1.92701 0.25
    endloop
  endfacet
  facet normal 0 0 1
    outer loop
      vertex 2.91587 2.73819 0.25
      vertex 3.23607 -2.35114 0.25
      vertex 3.23607 2.35114 0.25
    endloop
  endfacet
  facet normal 0 0 1
    outer loop
      vertex 2.91587 2.73819 0.25
      vertex 2.91587 -2.73819 0.25
      vertex 3.23607 -2.35114 0.25
    endloop
  endfacet
  facet normal 0 0 1
    outer loop
      vertex 2.5497 3.08205 0.25
      vertex 2.91587 -2.73819 0.25
      vertex 2.91587 2.73819 0.25
    endloop
  endfacet
  facet normal 0 0 1
    outer loop
      vertex 2.5497 3.08205 0.25
      vertex 2.5497 -3.08205 0.25
      vertex 2.91587 -2.73819 0.25
    endloop
  endfacet
  facet normal 0 0 1
    outer loop
      vertex 2.14331 3.37731 0.25
      vertex 2.5497 -3.08205 0.25
      vertex 2.5497 3.08205 0.25
    endloop
  endfacet
  facet normal 0 0 1
    outer loop
      vertex 2.14331 3.37731 0.25
      vertex 2.14331 -3.37731 0.25
      vertex 2.5497 -3.08205 0.25
    endloop
  endfacet
  facet normal 0 0 1
    outer loop
      vertex 1.70312 3.61931 0.25
      vertex 2.14331 -3.37731 0.25
      vertex 2.14331 3.37731 0.25
    endloop
  endfacet
  facet normal 0 0 1
    outer loop
      vertex 1.70312 3.61931 0.25
      vertex 1.70312 -3.61931 0.25
      vertex 2.14331 -3.37731 0.25
    endloop
  endfacet
  facet normal 0 0 1
    outer loop
      vertex 1.23607 3.80423 0.25
      vertex 1.70312 -3.61931 0.25
      vertex 1.70312 3.61931 0.25
    endloop
  endfacet
  facet normal 0 0 1
    outer loop
      vertex 1.23607 3.80423 0.25
      vertex 1.23607 -3.80423 0.25
      vertex 1.70312 -3.61931 0.25
    endloop
  endfacet
  facet normal 0 0 1
    outer loop
      vertex 0.749526 3.92915 0.25
      vertex 1.23607 -3.80423 0.25
      vertex 1.23607 3.80423 0.25
    endloop
  endfacet
  facet normal 0 0 1
    outer loop
      vertex 0.749526 3.92915 0.25
      vertex 0.749526 -3.92915 0.25
      vertex 1.23607 -3.80423 0.25
    endloop
  endfacet
  facet normal 0 0 1
    outer loop
      vertex 0.251162 3.99211 0.25
      vertex 0.749526 -3.92915 0.25
      vertex 0.749526 3.92915 0.25
    endloop
  endfacet
  facet normal 0 0 1
    outer loop
      vertex 0.251162 3.99211 0.25
      vertex 0.251162 -3.99211 0.25
      vertex 0.749526 -3.92915 0.25
    endloop
  endfacet
  facet normal -0 0 1
    outer loop
      vertex -0.251162 3.99211 0.25
      vertex 0.251162 -3.99211 0.25
      vertex 0.251162 3.99211 0.25
    endloop
  endfacet
  facet normal 0 0 1
    outer loop
      vertex -0.251162 3.99211 0.25
      vertex -0.251162 -3.99211 0.25
      vertex 0.251162 -3.99211 0.25
    endloop
  endfacet
  facet normal -0 0 1
    outer loop
      vertex -0.749524 3.92915 0.25
      vertex -0.251162 -3.99211 0.25
      vertex -0.251162 3.99211 0.25
    endloop
  endfacet
  facet normal 0 0 1
    outer loop
      vertex -0.749524 3.92915 0.25
      vertex -0.749524 -3.92915 0.25
      vertex -0.251162 -3.99211 0.25
    endloop
  endfacet
  facet normal -0 0 1
    outer loop
      vertex -1.23607 3.80423 0.25
      vertex -0.749524 -3.92915 0.25
      vertex -0.749524 3.92915 0.25
    endloop
  endfacet
  facet normal 0 0 1
    outer loop
      vertex -1.23607 3.80423 0.25
      vertex -1.23607 -3.80423 0.25
      vertex -0.749524 -3.92915 0.25
    endloop
  endfacet
  facet normal -0 0 1
    outer loop
      vertex -1.70312 3.61931 0.25
      vertex -1.23607 -3.80423 0.25
      vertex -1.23607 3.80423 0.25
    endloop
  endfacet
  facet normal 0 0 1
    outer loop
      vertex -1.70312 3.61931 0.25
      vertex -1.70312 -3.61931 0.25
      vertex -1.23607 -3.80423 0.25
    endloop
  endfacet
  facet normal -0 0 1
    outer loop
      vertex -2.14331 3.37731 0.25
      vertex -1.70312 -3.61931 0.25
      vertex -1.70312 3.61931 0.25
    endloop
  endfacet
  facet normal 0 0 1
    outer loop
      vertex -2.14331 3.37731 0.25
      vertex -2.14331 -3.37731 0.25
      vertex -1.70312 -3.61931 0.25
    endloop
  endfacet
  facet normal -0 0 1
    outer loop
      vertex -2.5497 3.08205 0.25
      vertex -2.14331 -3.37731 0.25
      vertex -2.14331 3.37731 0.25
    endloop
  endfacet
  facet normal 0 0 1
    outer loop
      vertex -2.5497 3.08205 0.25
      vertex -2.5497 -3.08205 0.25
      vertex -2.14331 -3.37731 0.25
    endloop
  endfacet
  facet normal -0 0 1
    outer loop
      vertex -2.91587 2.73819 0.25
      vertex -2.5497 -3.08205 0.25
      vertex -2.5497 3.08205 0.25
    endloop
  endfacet
  facet normal 0 0 1
    outer loop
      vertex -2.91587 2.73819 0.25
      vertex -2.91587 -2.73819 0.25
      vertex -2.5497 -3.08205 0.25
    endloop
  endfacet
  facet normal -0 0 1
    outer loop
      vertex -3.23607 2.35114 0.25
      vertex -2.91587 -2.73819 0.25
      vertex -2.91587 2.73819 0.25
    endloop
  endfacet
  facet normal 0 0 1
    outer loop
      vertex -3.23607 2.35114 0.25
      vertex -3.23607 -2.35114 0.25
      vertex -2.91587 -2.73819 0.25
    endloop
  endfacet
  facet normal -0 0 1
    outer loop
      vertex -3.50523 1.92701 0.25
      vertex -3.23607 -2.35114 0.25
      vertex -3.23607 2.35114 0.25
    endloop
  endfacet
  facet normal 0 0 1
    outer loop
      vertex -3.50523 1.92701 0.25
      vertex -3.50523 -1.92701 0.25
      vertex -3.23607 -2.35114 0.25
    endloop
  endfacet
  facet normal -0 0 1
    outer loop
      vertex -3.71911 1.4725 0.25
      vertex -3.50523 -1.92701 0.25
      vertex -3.50523 1.92701 0.25
    endloop
  endfacet
  facet normal 0 0 1
    outer loop
      vertex -3.71911 1.4725 0.25
      vertex -3.71911 -1.4725 0.25
      vertex -3.50523 -1.92701 0.25
    endloop
  endfacet
  facet normal -0 0 1
    outer loop
      vertex -3.87433 0.994759 0.25
      vertex -3.71911 -1.4725 0.25
      vertex -3.71911 1.4725 0.25
    endloop
  endfacet
  facet normal 0 0 1
    outer loop
      vertex -3.87433 0.994759 0.25
      vertex -3.87433 -0.994759 0.25
      vertex -3.71911 -1.4725 0.25
    endloop
  endfacet
  facet normal -0 0 1
    outer loop
      vertex -3.96846 0.501332 0.25
      vertex -3.87433 -0.994759 0.25
      vertex -3.87433 0.994759 0.25
    endloop
  endfacet
  facet normal 0 0 1
    outer loop
      vertex -3.96846 0.501332 0.25
      vertex -3.96846 -0.501332 0.25
      vertex -3.87433 -0.994759 0.25
    endloop
  endfacet
  facet normal 0 -0 1
    outer loop
      vertex -3.96846 -0.501332 0.25
      vertex -3.96846 0.501332 0.25
      vertex -4 0 0.25
    endloop
  endfacet
endsolid OpenSCAD_Model
